<?xml version="1.0" standalone="no"?>
<!DOCTYPE svg PUBLIC "-//W3C//DTD SVG 1.1//EN" "http://www.w3.org/Graphics/SVG/1.1/DTD/svg11.dtd" >
<svg xmlns="http://www.w3.org/2000/svg" xmlns:xlink="http://www.w3.org/1999/xlink" version="1.1">
<metadata></metadata>
<defs>
<font id="gothballcrapbold" horiz-adv-x="1024" >
<font-face units-per-em="2048" ascent="1638" descent="-410" />
<missing-glyph horiz-adv-x="500" />
<glyph horiz-adv-x="0" />
<glyph unicode="&#xd;" />
<glyph unicode=" " />
<glyph unicode="1" horiz-adv-x="1103" d="M267 52l-14 19h-51q0 6 -6 6h-9q-2 0 -4 1t-6 1q-8 0 -8 -8h-72l-18 18v62q4 2 9.5 13t11.5 23.5t13 22.5t13 10v109l4 4q0 8 -2 10t-2 8v6q0 5 4 5v168h-41q-2 5 -9.5 11.5t-16 14t-15 16.5t-6.5 19t7 22.5t11 22.5l66 66q14 0 14 4q0 2 -1 3t-1 3q0 7 13.5 13.5 t30.5 12.5t34.5 12.5t26.5 12.5q48 34 91 74t91 80q4 3 17.5 10t28.5 14.5t26.5 16t11.5 14.5v2q18 0 36.5 6t29.5 23h98q3 -15 27 -36.5t58 -45t73.5 -46.5t73 -41.5t55.5 -31t22 -14.5v-62q-4 -2 -7 -7.5t-5 -11t-5 -10t-7 -4.5v-127q-9 0 -9 -6v-8q0 -10 2 -13t2 -14 q0 -10 -4 -10v-182q-4 0 -6 -2t-4 -2v-4q4 0 6 -3t4 -3v-41q6 0 12 -25q5 -17 9.5 -23.5t9.5 -9t9 -3t7 -5.5h41l7 4h32q2 -3 9.5 -7.5t15.5 -9.5t14 -10t6 -10v-32q-6 -5 -8 -18t-10 -21q-6 -8 -27.5 -24t-45.5 -33t-44 -32t-22 -22h-43l-4 -10h-52q0 -8 -10 -8 q-20 0 -43.5 11.5t-44.5 29.5t-37 40t-20 44h-41q-6 -7 -19 -19.5t-28 -24.5t-28 -21t-19 -9l-52 -51q-7 0 -18 -11h-43q-6 10 -30 22.5t-51 24t-49 21.5t-24 16h-41zM370 343q0 -14 6 -31.5t22 -25.5q15 -6 47.5 -18.5t69.5 -24.5t71 -21.5t50 -9.5q29 0 47.5 23.5 t18.5 56.5l-5 4v145l5 5l-5 8v61l5 4v33l-5 6v70l-102 69q-18 13 -37 25.5t-34 22.5t-25.5 16t-12.5 6q-18 0 -30.5 -7t-23 -17t-20.5 -21t-24 -20v-41l4 -5l-4 -10v-258q-5 0 -8.5 -6.5t-5.5 -14.5t-3 -15t-1 -9z" />
<glyph unicode="2" horiz-adv-x="803" d="M308 -17q0 1 -14.5 9.5t-32.5 18.5t-34.5 18.5t-20.5 10.5q-58 42 -90.5 100t-55.5 128l-4 6v98q-10 0 -10 8q0 15 10 19v104q14 20 24.5 43.5t20 48.5t18.5 49.5t21 45.5q29 51 69 93t85 79.5t92 72.5t90 72h47q14 -10 25.5 -19.5t11.5 -31.5q0 -4 -2 -5t-2 -5 q0 -6 8.5 -19.5t21.5 -30.5t29 -34.5t31 -32.5t27.5 -25.5t17.5 -11.5q0 -14 9.5 -36.5t19.5 -37.5v-117q-6 -2 -11 -17.5t-9.5 -34.5t-8 -36.5t-8.5 -23.5q-7 -10 -28 -29.5t-43 -41t-40 -41t-20 -29.5l-58 -56q-16 0 -33.5 -9t-27.5 -24q0 -4 5 -12t9 -12q18 0 35 -4 t33.5 -9.5t32 -9.5t30.5 -4q33 0 67 14.5t56 36.5h56l18 -18v-61q-8 -10 -8 -19l-72 -69q-2 -18 -22.5 -35.5t-45 -32t-45 -25t-22.5 -16.5h-41q0 -5 -3 -7t-7 -3t-8 -2.5t-7 -5.5h-112q-2 4 -6 5.5t-7.5 2.5t-6.5 3t-3 7h-51zM298 399q0 -29 16.5 -48.5t40.5 -29.5 q6 4 14.5 16.5t16.5 27.5t15 29.5t10 22.5q32 29 50.5 57.5t18.5 69.5v25l-4 4q-2 3 -5.5 8.5t-7.5 12t-6.5 12t-2.5 8.5l-84 84h-39q0 -2 -8.5 -18.5t-18.5 -35t-19 -34t-10 -15.5v-157q6 -11 7.5 -23t15.5 -16z" />
<glyph unicode="3" horiz-adv-x="709" d="M118 85q0 24 9 41.5t20.5 34t20.5 35t9 43.5q0 8 -2 10t-2 8q0 9 2 13t2 12t-4 8v21q0 14 2 23t2 28v18l-4 4v299h-94q0 2 -4.5 5.5t-10 8t-11 9.5t-7.5 10l-4 4v25q0 26 19 47.5t41.5 39t41.5 30.5t19 22v105q6 4 19 34.5t30 68t36 72.5t37 48q3 2 9.5 7.5t12.5 12.5 t10.5 14.5t4.5 12.5l66 65q6 0 21 11t36 28t46.5 36t50.5 36t48.5 28t41.5 11q27 0 46 -17t35.5 -41t32 -48.5t35.5 -39.5q2 -1 14.5 -5.5t27 -10.5t26.5 -12t12 -12v-80q-1 -9 -16 -21t-33.5 -24.5t-36 -24t-23.5 -20.5q-4 -7 -12.5 -13t-18.5 -10t-20 -6t-18 -2 q-16 0 -48 12t-63 29.5t-54.5 38t-23.5 37.5h-32q0 -3 -3 -8.5t-6.5 -11.5t-7.5 -12.5t-6 -10.5l-4 -5v-98l-10 -4v-90q-8 0 -8 -8q0 -3 1.5 -10.5t3.5 -16t5.5 -14.5t7.5 -6h201l28 -33v-51q-5 -2 -8.5 -8.5t-6.5 -14t-6 -14.5t-7 -10q-5 -6 -29.5 -20t-53 -28t-54 -25 t-31.5 -11q-8 0 -10.5 2t-8.5 2q-16 0 -20 -13.5t-4 -25.5q0 -8 4 -8v-398l-4 -4v-14q0 -12 6 -20t14.5 -14t16 -10.5t10.5 -10.5h51q0 -33 29 -33v-53q-7 -3 -10.5 -10l-7 -14t-9 -12t-16.5 -5l-41 -43q-19 0 -19 -19l-39 -37h-135q-14 19 -40 33l-52 28t-45.5 30t-19.5 40 z" />
<glyph unicode="4" horiz-adv-x="989" d="M274 -626q-31 14 -66.5 32.5t-66.5 38t-53.5 40t-28.5 39.5q-2 2 -5 11.5t-7 21t-8.5 21t-8.5 11.5v135q7 3 11 10.5t7 16.5t5 17t6 12l22 4q7 4 21 17t32 31t37 38.5t37 40.5h52q4 -6 10 -8t12 -3.5t10 -5t4 -12.5v-59q-10 -9 -11 -22t-11 -21v-41q1 0 11 -13t25 -30.5 t33.5 -33.5t36.5 -22q2 0 8.5 -3t13.5 -7.5t13.5 -8.5t7.5 -5h164q6 10 15.5 16t21 13t23 16.5t20.5 25.5l4 5v116q-6 2 -14 26t-15.5 52.5t-13.5 52t-8 23.5v80q-8 0 -11 7t-3 11h-43q-10 -17 -31.5 -29.5t-46.5 -21.5t-49.5 -14.5t-40.5 -8.5l-4 -6h-90l-5 11h-51 q-4 8 -23 20t-41 25.5t-41.5 28t-25.5 28.5q-14 35 -27.5 67.5t-23.5 67.5l-4 6v135l8 5v43q5 0 6.5 4.5t1.5 10.5v8q0 7 1.5 12.5t9.5 5.5v51q17 10 30 38t26 60.5t28.5 63t37.5 45.5q7 4 14 4t7 8q0 4 -2 6l65 66q17 1 28 15t19 21q5 4 21 11.5t37.5 17t45.5 19t44 19 t34 17t15 11.5h51q5 -8 13 -8q2 0 6 0.5t6 0.5q8 0 8 -8h41q0 -12 16 -12q4 0 5.5 1t5.5 1q14 0 16 -8h106l7 4h98q5 0 8.5 -7t5.5 -15t3 -15.5t1 -9.5q0 -7 -9 -28t-20.5 -44t-21 -41t-10.5 -18v-293q-10 0 -10 -10q0 -15 6 -15v-32l-6 -5q0 -8 3 -9t3 -5q0 -14 -6 -14 v-135l10 -4v-127q12 -7 19 -27t12.5 -41.5t9.5 -39t10 -19.5v-136q-8 -4 -15.5 -20t-15 -38.5t-16.5 -47.5t-21 -45.5t-28.5 -34.5t-38.5 -14l-43 -43q-1 0 -14.5 -10t-33.5 -26t-44 -35t-46.5 -36.5t-41.5 -30.5t-29 -16q-23 -9 -33 -22h-43q0 -6 -3.5 -8.5t-7.5 -4 t-7.5 -2.5t-3.5 -4h-43l-4 -10h-33l-4 10h-80zM311 345q5 -3 9 -10t8 -15.5t6.5 -16.5t4.5 -13q7 -19 26.5 -32.5t40.5 -22.5t37.5 -13.5t16.5 -5.5h43q3 8 12 8q2 0 5.5 -0.5t5.5 -0.5q10 0 10 11h41l37 37v379q-3 0 -14.5 4.5t-25 10t-24 11t-10.5 7.5h-43q-2 5 -8 7.5 t-12.5 4t-12.5 3.5t-8 7h-61q0 -14 -10.5 -21t-18.5 -16q-2 -6 -11 -25.5t-18.5 -40.5t-17.5 -37.5l-8 -16.5v-203v0z" />
<glyph unicode="5" horiz-adv-x="911" d="M238 31q-3 14 -16 14q-2 0 -5.5 -0.5t-5.5 -0.5q-9 0 -14 9h-62q-4 -6 -11 -6t-11 -6h-51q0 3 -3 8.5t-7.5 12t-8.5 12t-6 8.5l-4 4v33q4 2 11.5 11.5t15.5 20.5t14 20.5t6 12.5l47 48q3 0 17 8t31 18.5t32.5 20t21.5 10.5l29 8h78q3 -8 12 -8q3 0 6.5 1t6.5 1q8 0 8 -8 h51q5 -7 28 -21t50.5 -28t51.5 -24.5t30 -10.5q12 0 18 4t9.5 10t7.5 12.5t12 10.5v43q-5 4 -9.5 12t-9 16.5t-9 16t-9.5 10.5q-7 6 -34 13t-57 15.5t-54.5 17t-24.5 15.5h-59q0 4 -14.5 9.5t-33 11t-35 10t-20.5 6.5q-20 15 -45.5 36t-48.5 46t-39 53t-16 58l4 8q0 4 -2 7 t-2 13t3.5 26.5t9 34t12 34t12.5 26.5q4 8 23.5 28.5t46 47t56.5 55.5t56 52.5t44.5 39t20.5 15.5l52 53q10 0 21 10.5t15 16.5h62q2 -6 13 -19.5t24.5 -28t27 -25.5t19.5 -11l51 -52q2 3 6 3q12 0 23.5 -10.5t17.5 -20.5h62l26 -33v-59l-37 -39q-10 0 -19 -8.5t-9 -18.5 l-47 -47q-15 0 -30.5 -10t-29.5 -15l-4 -4h-53q-2 4 -14 10t-30 14t-38 18t-38 22t-30 25.5t-14 27.5h-51q0 -27 -27 -27v-53q3 0 20.5 -11.5t40.5 -26.5t48.5 -29.5t44.5 -20.5q1 0 8 -2.5t14.5 -6.5t14 -7.5t6.5 -5.5h78q0 -9 9.5 -12t21 -5t21 -4t9.5 -8h43q0 -1 11 -8 t27.5 -19.5t36 -29.5t36 -38t28 -45.5t11.5 -52.5q0 -8 -7 -8v-51q-1 0 -8.5 -15.5t-17 -35t-19 -38t-14.5 -24.5q-10 -5 -24.5 -12.5t-29 -16.5t-27 -19.5t-17.5 -20.5q-16 -32 -40.5 -57t-53.5 -46t-60.5 -39t-60.5 -36l-7 -4h-40l-5 -11h-43q-2 6 -20.5 12t-39.5 13.5 t-38.5 16.5t-17.5 20v4h-43z" />
<glyph unicode="A" horiz-adv-x="1555" d="M1094 101q0 13 -8 47.5t-20.5 78.5t-27.5 92t-29.5 87.5t-27 65.5t-18.5 26q-14 0 -37.5 -10t-48.5 -23.5t-47.5 -26.5t-34.5 -20h-117q-2 7 -8.5 8t-15 2t-16 4t-11.5 15h-43l-12 12h-57q-15 -12 -41 -12l-52 4q-8 0 -21.5 -25.5t-26 -58.5t-22 -63t-9.5 -39 q0 -14 20.5 -23t47 -14.5t51.5 -7.5t34 -2l84 4q12 -7 20.5 -10.5t14.5 -8.5t9 -13t3 -23q0 -46 -21.5 -76t-53 -51t-67 -36.5t-63.5 -33.5h-127q-2 5 -6 7t-9 4t-9.5 5t-7.5 11h-43l-45 10q0 8 -8 8q-3 0 -6.5 -1t-6.5 -1q-9 0 -12 8h-86q-10 -6 -25.5 -17.5t-33 -23 t-35 -20t-31.5 -8.5q-12 0 -18 5t-10 11.5t-8 14.5t-11 14v47q4 2 13 14t18.5 26.5t16.5 27.5t7 16l90 84q10 0 32.5 11.5t50 33t57 51.5t53.5 67.5t39.5 81.5t15.5 93h2q6 0 12 13t12.5 30t14 33t14.5 22v41q4 0 4 6q0 16 -4 23.5t-10 11.5l-12 8t-10 12h-48 q-6 -10 -23.5 -16t-31.5 -6q-12 0 -17.5 6.5t-8.5 14.5t-6 15t-11 9v39q-3 -1 -7 -1q-2 0 -2 1q0 6 18 23.5t48 42.5t69 56t81 64l53 -2q2 2 2 6h43q4 0 11.5 19.5t17 44.5t20.5 48t21 29v41q18 11 31 40.5t24.5 62.5t24 61.5t28.5 36.5v21q0 7 -0.5 15t-3 14.5t-8 11 t-16.5 4.5h-10q-19 0 -32.5 -8t-26.5 -18t-26.5 -18t-31.5 -8h-27q-10 9 -11 17t-9 12v66q6 4 17 20.5t22 34.5t19 32.5t7 14.5l66 66q7 2 18 5.5t22.5 8t21.5 10.5t14 12h116l74 -36q5 -11 12.5 -22t21.5 -19q32 -20 54.5 -49.5t38 -65.5t26 -75.5t19.5 -79.5t18 -78 t21 -70q24 -60 49 -136t50.5 -160t52.5 -171t54.5 -168.5t56 -154t58 -126t60.5 -85t63 -31.5q11 0 24 7t23 7q48 -10 48 -61q0 -33 -21 -59.5t-50.5 -48t-62 -40t-55.5 -35.5h-74q-6 6 -21 12.5t-32.5 12.5t-34 12t-24.5 10zM488 609h12q15 0 25.5 9t20.5 20.5t21 20.5 t29 9q5 0 7 -1t6 -1q3 8 11 8q2 0 5 -0.5t5 -0.5q9 0 12 8h106q8 -5 23.5 -10.5t33 -10.5t34.5 -8.5t26 -3.5q5 0 13.5 1t17.5 3.5t16.5 6.5t9.5 11q0 -5 -1 -5q-3 0 -9.5 20t-14.5 44t-17 44t-15 20v41q-8 3 -11 9t-5 13t-4 13t-7 8v41q-8 0 -10.5 5t-4 12t-4 14.5 t-10.5 11.5v41q-8 2 -11 10.5t-4.5 17.5t-3.5 16t-9 7v52q-9 0 -12 7.5t-4 17t-2.5 18t-8.5 10.5v41h-24q-4 0 -14.5 -20t-25.5 -53t-33 -75t-36.5 -87t-35.5 -89.5t-30.5 -81t-21.5 -62t-8 -32.5q-7 -4 -14.5 -15t-14 -24.5t-10.5 -26t-4 -18.5z" />
<glyph unicode="B" horiz-adv-x="1654" d="M165 -47q0 47 16.5 82.5t43.5 62.5t61 47.5t68 37t65.5 31.5t53.5 30h90q0 -4 14 -4q12 0 17.5 3t21.5 3q6 0 6 -6h51l170 -21l111 -18l90 -9q12 11 31.5 15t41 6.5t42 5t34.5 10.5q33 21 46.5 50t19.5 58.5t11 57t22 45.5v131q-13 18 -23 38t-18.5 41t-17.5 42.5 t-21 40.5q-11 19 -25.5 36t-35 30t-48.5 20.5t-67 7.5q-6 0 -6 -4h-43l-66 -10q0 -4 -2 -13.5t-2 -13.5l-4 -84l-10 -75q-2 0 -7 -14l-12.5 -35t-17 -46t-20 -46.5t-22.5 -36t-24 -15.5l-41 -41q-7 0 -18.5 -8t-26 -18.5t-30.5 -20.5t-33 -14l-4 -4l-62 8q0 4 -2 10t-2 14 q0 23 9 39.5t20.5 32.5t20.5 35t9 47v10q7 6 7 19q0 17 -7 18v186q-8 8 -8 15q0 8 2 10t2 8l-4 15q0 10 8 10l7 121l-7 18q0 13 11 18v236q-2 -2 -5 -2v1q0 4 13.5 24.5t34 50t45 64t45.5 66.5t36 57.5t17 37.5l94 92q21 7 36 20.5t28.5 29t26 32t28.5 29.5t37 21.5t49 8.5 h14q5 -9 15 -14t21.5 -8t22.5 -6t17 -8q30 -19 55.5 -33.5t47.5 -27.5t40.5 -25t33.5 -26q32 -28 57.5 -69t50.5 -114l4 -109q-8 -2 -15.5 -20.5t-14 -41.5t-13 -45t-12.5 -32q-1 -1 -7 -6t-13 -12t-12 -14.5t-5 -14.5l-47 -47q-11 0 -22 -9.5t-11 -23.5q53 -37 95.5 -83 t72.5 -86.5t47 -68.5t18 -28v-62l11 -55q4 0 4 -6v-17q0 -6 -4 -6v-41l-11 -65q29 0 29 -18q0 -17 -20.5 -45.5t-52.5 -61.5q-30 -32 -72 -71.5t-87.5 -80t-90.5 -79.5t-81.5 -70.5t-60 -53t-26.5 -26.5h-41q-2 -7 -8.5 -10t-13.5 -5.5t-13 -5t-8 -8.5h-43l-111 -8l-29 -10 q-14 0 -29.5 2t-25.5 16h-86q-7 9 -20 11t-27 2.5t-26.5 3t-18.5 12.5h-84l-76 10q-4 4 -14 4q-43 0 -76 -15.5t-59.5 -33.5t-50 -33.5t-48.5 -15.5q-16 0 -28.5 10t-12.5 27zM286 448q0 12 5.5 24t13 22.5t16.5 20t16 17.5v160l-9 15t-13.5 20.5t-15 18.5t-13.5 8h-84 q-14 -15 -26.5 -20t-34.5 -5h-23q0 9 -3 15.5l-6 13l-6 13t-3 15.5q2 0 18.5 23t42.5 61.5t59.5 87t69.5 99t72.5 99t68 87t56 61.5t37.5 23h12.5t15.5 -2.5t13.5 -8t5.5 -16.5l-4 -75v-467l-10 -84q-3 0 -19 -43q-9 -23 -26.5 -62t-43 -76.5t-58.5 -64.5t-73 -27 q-14 0 -28.5 9.5t-22.5 19.5v18zM903 926q10 0 41 15t69 37t77.5 46.5t66.5 42.5l77 74q19 18 24 47.5t5 54.5l-37 94q-12 27 -35.5 47t-51 36.5t-56 31.5t-49.5 31h-47l-56 -58q0 -2 -3.5 -9.5t-8 -15.5t-9.5 -14t-7 -6v-43l-9 -73q-10 0 -10 -11q0 -4 2 -7t2 -7 q0 -8 -2 -11t-2 -20q0 -10 10 -10v-137q7 0 7 -6q0 -10 -1 -15.5t-2.5 -8.5l-2.5 -5t-1 -6q0 -10 5 -10q-7 0 -7 -9q0 -8 2 -10l2 -16q4 -2 7 -2v-47zM-50 1290q0 15 -5 26t-5 21q0 61 32 112t79.5 91.5t104 71t106.5 51t85 30.5t41 10q1 0 1 -1l145 -4q0 -7 5 -9t11.5 -2 t11.5 -1t5 -7h98q0 -11 10 -11q2 0 5.5 0.5t5.5 0.5q9 0 12 -8h47q14 14 33.5 18t36.5 4h18q8 -4 18.5 -18t10.5 -25q0 -10 -7.5 -20t-11.5 -21l-112 -112q-2 0 -15.5 -6.5t-31 -15l-35 -17t-27.5 -12.5l-149 -5q-6 3 -14 6t-16.5 6t-15.5 6.5t-10 8.5h-76l-83 6l-18.5 -14 t-46 -35.5t-59.5 -46.5t-60.5 -46.5t-48.5 -35.5t-23 -14q-11 0 -16.5 3t-10.5 6t-10.5 6t-14.5 3z" />
<glyph unicode="C" horiz-adv-x="1285" d="M652 -34q-6 13 -23 13h-6q-14 0 -14 14h-43q-1 2 -15 10.5t-35 20t-46 25.5t-47.5 27.5t-40 25t-24.5 18.5q-9 4 -18 9t-15 5l-84 84l-47 55q0 4 -10.5 29.5t-24.5 55.5t-27 56.5t-18 32.5l-4 56q-6 0 -8.5 4t-3.5 8.5t-2.5 8t-4.5 3.5l-10 41v285l10 57q7 0 7 12v7 q0 14 12 14v80q10 0 25.5 30t35 75t41.5 97.5t45 97.5t46 75t44 30l37 37q1 8 12 18.5t27 21t34.5 21.5t34 20.5t26.5 16.5t12 11h24q45 0 45 -47v-19q-3 -3 -7 -11.5t-8.5 -17.5t-10.5 -15.5t-15 -6.5l-94 -94q0 -3 -15 -27.5t-34 -56t-36 -62t-21 -45.5q0 -3 -1 -9 t-3.5 -11.5t-6 -10t-8.5 -4.5q-4 0 -6 2v-43l-8 -47q-12 0 -12 -11v-7q0 -10 -7 -14v-271q6 -2 8.5 -12t4 -21t4.5 -19.5t10 -8.5v-51q9 -2 18.5 -26t20 -51.5t24 -50t31.5 -22.5q4 0 11.5 1t7.5 9v41q6 0 7 5t1 11.5t1.5 11.5t8.5 5l4 401q-10 3 -15 8t-8 11t-6.5 12 t-11.5 12v48q-13 -7 -21 -12q-4 -3 -7 -4q-3 -2 22.5 16t65 49t86.5 72t87.5 86t67.5 90.5t27 85.5l112 141q12 18 23.5 34t20.5 28t15 19t7 7h51q0 6 6 6q27 0 42.5 -11t25.5 -28v-10q0 -10 -2 -18.5t-2 -18.5q0 -42 15 -75t37 -60t48.5 -49t48.5 -40.5t37 -35.5t15 -35 q0 -12 -11 -31.5t-28.5 -41.5t-39.5 -45t-44 -41.5t-41.5 -30t-32.5 -11.5h-23q-7 17 -25.5 26t-38.5 18.5t-36 23.5t-16 41l-52 51q0 10 -9 21.5t-19 11.5t-14.5 -5t-14.5 -5l-55 -56q0 -4 -5 -11.5t-11.5 -15.5t-12.5 -14t-8 -6v-88q-10 0 -10 -10t4 -10v-92q-4 0 -4 -7 v-16q0 -6 4 -6l-4 -43l4 -154q-6 -4 -6 -13t-8 -9v-43q-13 -6 -24 -25.5t-21 -43.5t-20.5 -48.5t-23.5 -40.5q-6 -6 -29.5 -19.5t-49 -28t-46 -27t-20.5 -15.5q0 -21 15 -37.5t38.5 -30.5t51.5 -26.5t53.5 -24t46.5 -23.5t29 -26h51q0 -6 4 -8t8.5 -3t8 -2.5t3.5 -4.5h41 l131 -11q6 11 26.5 22.5t44.5 23.5t45.5 25t29.5 28l69 10q6 0 11 -7.5t9 -17.5t6.5 -19.5t2.5 -12.5q0 -27 -16.5 -59t-43.5 -64.5t-61 -64t-68.5 -58.5t-67 -47t-56.5 -29l-4 -4l-66 -10l-57 10h-97z" />
<glyph unicode="D" horiz-adv-x="1634" d="M-51 7q0 12 4.5 20.5t10 17t10 17.5t4.5 21l47 51l92 80q1 0 19 6t39 14.5t38 16t17 10.5h258q9 -9 22 -9q5 0 11.5 1.5t11.5 1.5q13 0 20 -9h93q6 -10 22.5 -13t38.5 -3h25q18 0 33.5 -2t21.5 -10h223q27 17 60.5 38t67 47.5t65.5 59.5t57 74.5t40 92.5t15 114l-6 18 q0 14 7.5 30.5t7.5 31.5l-5 14v27q0 10 2.5 19t2.5 24q0 14 -2.5 20t-2.5 16q0 9 2.5 11t2.5 8q0 9 -5 14v66q-7 7 -15.5 37t-19 72t-23 89.5t-29.5 88.5q-8 20 -21 37.5t-25 31.5t-21 23.5t-9 13.5l-62 59q-13 4 -29 14.5t-34.5 22t-40 20.5t-45.5 9q-6 0 -17.5 -4 t-23.5 -10.5t-20.5 -13.5t-8.5 -13v-795q-4 0 -5 -3t-5 -7l6 -8q0 -16 -10 -45.5t-27 -64t-39 -70t-46 -64t-48 -47t-45 -18.5h-70q-10 10 -20 10v55q6 4 13.5 17t15.5 27t15 25t13 11v145q4 0 4 7q0 20 -4 20v94q4 0 4 8q0 11 -4 11v448q6 0 6 10q0 9 -1 13t-2 7t-2 5.5 t-1 7.5q0 8 8 8v62l11 47l8 55q18 11 31 34.5t26.5 48t29.5 46t40 27.5l112 106q6 2 22.5 10.5t34.5 18t34 17.5t22 10l74 -4q2 0 37.5 -8.5t87.5 -31t112.5 -61.5t112 -99t85.5 -144.5t34 -198.5l-2 -19q4 -4 6 -4l4 -178l-4 -233q2 1 4 1q5 0 5 -6q0 -14 -28.5 -62 t-78.5 -115t-118 -147t-148 -159t-167 -150t-176 -120h-164l-149 18l-131 19l-47 10l-230 4q-15 0 -27.5 -11t-25 -24t-26 -24t-31.5 -11q-12 0 -23 5t-19.5 12.5t-14 17.5t-5.5 21zM259 429q8 6 14 17t12 23.5t12 23.5t13 16v196q-5 0 -13 3t-17 6.5t-17.5 7.5t-14.5 6 l-2 2q-2 2 -2 8h-43q-6 9 -12.5 13.5t-12 10t-9 13t-3.5 22.5q0 11 6 22.5t12.5 23t12.5 21.5t6 19l39 41q13 0 21 6t13.5 14.5l11 17t14.5 13.5v56q-5 0 -5 10t11 10v41l8 66q4 0 13 13t18.5 29.5t16.5 32t7 19.5l43 41q0 10 5 14t12 6.5t14.5 4.5t11.5 8h60q18 0 25 -13.5 t9.5 -31t4 -34.5t8.5 -24l-15 -262q9 -10 12 -27.5t3 -27.5l-4 -10v-37q0 -15 4 -19v-65l-4 -94q1 -4 -14 -54q-6 -20 -17 -50t-26 -62.5t-35.5 -65t-44.5 -58t-53 -41.5t-62 -16h-12t-16 2.5t-13.5 8.5t-5.5 18v66v0zM89 1406q-9 0 -9 10q0 8 9 8v51q10 10 31.5 40t43.5 65 l47 45q3 0 16.5 6t33.5 15.5t43.5 21t46.5 22.5h71q15 -10 35.5 -12t42.5 -3.5t41 -6t31 -19.5h102l29 -98q-18 -21 -39 -48.5t-44 -51.5t-47 -41t-48 -17q-6 0 -7 2t-5 2q-5 0 -10 -2t-15 -12h-145q-3 6 -15 6h-14q-9 0 -14 6h-74q-16 0 -28 -8t-23 -17.5t-23.5 -17.5 t-30.5 -8l-32 10v52z" />
<glyph unicode="E" horiz-adv-x="1531" d="M-19 -120q0 26 15 58t39 65t55 66t63 60.5t63 48t56 29.5q6 4 24 7t38 6.5t37.5 8t21.5 11.5h121l10 4h98q0 -4 9 -4q4 0 8 2t10 2l6 -4l19 4q8 0 8 -4h119l4 -10h41q0 -6 4 -7.5t8.5 -2.5t8 -2t3.5 -7h98l5 -8h43q0 -8 6 -10t12 -2h8q12 0 15 -6h108q2 7 24.5 12.5 t51 15.5t55.5 27t37 47q10 29 26.5 49.5t47.5 20.5q12 0 19 -5t12 -12.5t10.5 -15.5t15.5 -14v-37q-18 -31 -30.5 -53.5t-16.5 -30.5l-10 -19l-41 -43q0 -10 -9.5 -18t-19.5 -8l-51 -53q-7 0 -26 -12t-42.5 -28t-47 -30.5t-38.5 -18.5q-1 0 -7.5 -2.5t-13.5 -6.5t-13.5 -7.5 t-8.5 -5.5h-200q-31 8 -63.5 17t-61.5 16.5t-51 12.5t-31 5l-4 -6h-4l-11 10h-73l-11 10h-65l-8 5h-150l-6 -5h-70l-4 -10h-61q-6 -11 -25.5 -28t-42.5 -35.5t-44.5 -37t-33.5 -30.5q-16 -18 -51 -18q-37 0 -37 37zM524 375q7 6 18 26.5t21.5 42t18 38t8.5 16.5v74q6 8 6 17 t8 20v178q-6 5 -6 14q0 8 3 14.5t3 14.5v14l-6 8l6 11l-6 8l6 10l-6 8v6q0 7 3 9t3 10q0 6 -3 8t-3 10q0 14 6 15v102l-6 10l4 4q4 4 6 4v168q8 11 19 35t23 51t23 52.5t19 40.5q6 10 24.5 32.5t45 50.5t57 58t59.5 54.5t54.5 40t40.5 15.5h79q4 -4 12.5 -6t17.5 -4 t15.5 -4.5t6.5 -7.5h51q0 -10 9 -13t22 -3h14q24 0 24 -13h52q0 -7 5 -8.5t11 -1.5t11 -1t5 -7h80l4 4h62q4 -7 10.5 -11.5t12.5 -9t10 -11.5t4 -19v-15q-1 0 -9.5 -9t-22 -23.5t-30 -31t-33 -32t-31 -27.5t-24.5 -16q-2 -2 -12 -5t-21 -7t-20.5 -8t-11.5 -9h-162l-160 58 q-16 6 -23 10t-11.5 7t-9.5 4t-17 1h-15l-26 -28v-164q-11 0 -11 -12q0 -15 11 -15v-69l4 -7q-4 0 -4 -8q0 -10 4 -10v-74l-4 -6v-65l4 -5q0 -4 2 -11t2 -11h6q21 12 38 24.5t21 16.5h70l6 -4h135l4 -10h175q0 2 11.5 7t26.5 10.5t29.5 10t20.5 4.5q10 0 21 -7t22 -11v-55 q-9 -4 -17 -17t-16 -27t-17.5 -25t-21.5 -11l-78 -80q-5 -2 -17 -6.5t-24.5 -10t-22.5 -11t-12 -9.5h-237q-12 4 -21 4q-6 0 -7 -2t-5 -2q-8 0 -12 2t-13 2q-6 0 -8 -2t-6 -2q-6 0 -11 2t-11 2q-11 0 -17 -4t-20 -4v-62l-11 -4v-71l-8 -4v-52q-8 -2 -15 -11.5t-12.5 -21 t-9.5 -23t-6 -17.5l-43 -43q-2 -16 -24.5 -41t-52 -48.5t-60.5 -40t-49 -16.5q-3 0 -9 1t-12.5 3t-11 5.5t-4.5 9.5v65v0zM280 385q0 7 2.5 21t6 29.5t9 28t11.5 16.5v120q6 8 6 17q0 4 -1 9t-1 7v23l-4 6q-2 2 -7 5t-11 3h-66l-6 -4h-51q-3 0 -7.5 8t-9 18t-7.5 19t-3 10 q16 23 22.5 47.5t22.5 47.5q10 14 28 26.5t37 25.5t34.5 27.5t19.5 32.5l-6 8l6 15l-6 14q0 13 6 43t16.5 67.5t25 77.5t32.5 73t38 54t41 21h62l27 -27v-10q0 -2 -1 -10.5t-2.5 -17.5t-4.5 -16t-7 -7v-361l-8 -4v-37l4 -6l-4 -4v-131l4 -4l-4 -4v-53q-8 0 -10 -5t-3.5 -12 t-4 -14t-11.5 -10v-43q-14 -6 -23 -23.5t-9 -32.5l-70 -71q0 -7 -8 -16t-19 -16t-22 -12t-17 -5q-10 0 -26.5 4t-20.5 14v18zM47 1348v10q24 42 57.5 90t75.5 88.5t91.5 67.5t105.5 27q6 0 6 -7h51l6 -10h51q0 -7 5 -8.5t11.5 -1.5t11.5 -1t5 -7h135q0 -3 7.5 -9t16 -14 t16 -16.5t7.5 -15.5q0 -11 -7 -22t-11 -21l-80 -82q0 -13 -15.5 -22t-33.5 -16t-33.5 -11.5t-15.5 -8.5h-62l-4 -10h-14q-5 0 -13 1t-16.5 3t-15.5 5.5t-10 8.5h-76q-1 7 -19 7q-14 0 -14 -7h-51q0 -3 -14.5 -16.5t-33 -28.5t-36 -27t-23.5 -12q-8 0 -18 5.5t-14 5.5z" />
<glyph unicode="F" horiz-adv-x="1521" d="M-32 -12q7 6 11 12t6 12t4.5 12t7.5 11q23 33 43.5 59t43 47t50 37.5t64.5 31.5l2 2q2 2 2 6h43q0 5 3.5 6.5t7.5 2t7.5 2t3.5 7.5h127l4 10h175q10 15 15 19.5t8.5 6.5t7 6.5t10.5 19.5l2 2q2 2 8 2v51l4 6v84q-4 0 -4 8q0 4 2 7t2 8q0 10 -4 10v117l-10 4v182l-9 4v328 l9 4v80l10 6v51q1 0 7.5 17.5t14 40t14.5 44t9 29.5q22 35 42.5 63.5t43.5 57.5q3 7 22 21t45.5 31.5t56.5 36t56 34.5t43 26t18 11h72l27 -15h76q4 -10 14 -13t24 -3q11 0 24 1t24 1q28 0 34 -14h84l11 -11h65l4 7q4 0 7 -1.5t8 -1.5q14 0 23.5 6t18 13.5t18.5 13.5t24 6 q10 0 18 -5t18 -5v-74q0 -27 -18 -52t-47 -47t-65 -39.5t-71.5 -30.5t-67.5 -20t-52 -7h-6q-8 0 -8 10h-52q0 8 -12 8h-14q-17 0 -17 10h-59l-6 9h-41q0 6 -5 7t-11.5 1t-11.5 1.5t-5 8.5h-90l-4 6h-14q-18 0 -31.5 -7.5t-23 -19.5t-14.5 -27t-5 -30q0 -22 8 -24v-92 q6 -7 6 -15q0 -9 -6 -14v-225l6 -9v-13t1.5 -18t4.5 -15.5t8 -6.5q7 0 9 2h14q16 8 21.5 15.5t8.5 14t7.5 13t17.5 13.5q15 0 15 14h22q4 0 7 1t7 1q14 0 15 -6h94l8 -10h226q4 8 11 7t11 7h33q4 -8 16 -14.5t12 -14.5v-47q0 -14 -11.5 -22.5t-26 -15.5t-28 -15t-17.5 -21 l-66 -65q-8 -4 -19 -10t-23 -12.5t-23 -13t-19 -11.5h-248q0 6 -8 6t-10 -2q-2 0 -11.5 -0.5t-20 -2t-18.5 -4.5t-8 -8v-73q-8 -2 -8 -15q0 -10 2 -19t2 -20q0 -8 -4 -12v-94q-10 -8 -12.5 -17.5t-5 -23.5t-8 -33.5t-22.5 -48.5q-13 -22 -33 -53t-39.5 -59.5t-35.5 -48 t-22 -19.5l-74 -76q0 -12 -10.5 -23.5t-26.5 -22t-34 -20t-34 -17.5t-27.5 -13.5t-12.5 -9.5h-313q0 -1 -14.5 -15t-32 -31.5t-33 -34t-19.5 -22.5q0 -10 -10 -10h-51q-6 0 -7.5 3.5t-2.5 8.5t-2.5 9.5t-6.5 7.5v73zM259 429q13 6 17 18.5t6 26t5 25.5t13 18v84l-4 6l4 4v84 q-4 0 -11 2t-11 2l-6 6h-52q0 -1 -8.5 -6.5t-19 -11.5t-20 -10.5t-11.5 -4.5q-3 0 -11.5 5t-18 11.5t-16.5 12.5t-7 8v56q12 9 20 20.5t14.5 24t13.5 25.5t17 24q3 4 24 17.5t45 28.5t43 27.5t19 14.5v108q6 15 11.5 28t9.5 24q2 6 16 38t37 68t52.5 65t62.5 29q12 0 17 -4 t8 -9.5t6 -12t10 -11.5v-94q-4 0 -4 -8v-10q0 -10 2 -13.5t2 -9.5q0 -10 -4 -10v-528q-2 0 -14.5 -21t-29 -48t-32 -51t-23.5 -30q-6 -4 -23.5 -16.5t-37 -26t-34.5 -25.5t-17 -16h-41q0 10 -6.5 17.5t-12.5 11.5v37zM81 1387q0 13 8.5 30t19 33.5t19 30.5t8.5 21l95 96 q2 1 18 10t35.5 20t38.5 21.5t28 14.5q4 0 16.5 2t16.5 2l4 4h53q5 -6 17 -6h10q14 0 14 -9h43l5 -8h51q0 -11 10 -11q2 0 5 0.5t5 0.5q10 0 13 -8h79l4 4h43q14 0 16.5 -11.5t2.5 -21.5v-17.5t-1.5 -14t-5.5 -13.5t-12 -16q-14 -2 -14 -13v-4q0 -13 -20.5 -32t-48 -37.5 t-55.5 -35t-44 -24.5l-6 -4h-41q0 -8 -10 -8q-14 0 -14 8h-52l-4 10h-69l-7 5h-69l-4 -5h-43q-2 -8 -14.5 -18t-26.5 -20.5t-25.5 -20t-11.5 -16.5h-33q-4 9 -11.5 15t-15.5 12t-14 13.5t-6 20.5z" />
<glyph unicode="G" horiz-adv-x="1418" d="M196 309q-3 16 -16 27.5t-21 27.5q-2 5 -7.5 21.5t-13 39.5t-16.5 49.5t-18 49.5v51l-11 4v70l-8 6v78l-10 6l10 4v88l8 6v59l11 7v77q6 3 8 12t3 18t4 16.5t11 7.5v41q8 2 18 21t19 43t15 46.5t6 30.5q1 0 11 13t24 32.5t31 43t32.5 45.5t28 38.5t18.5 22.5 q84 90 168 141q14 8 29.5 10t25.5 8q13 -7 23.5 -10.5t18 -8t12 -12.5t4.5 -24q0 -23 -13.5 -38t-33.5 -23l-66 -62q-28 -10 -49.5 -35.5t-38 -56t-30 -61.5t-27.5 -52q0 -9 -2 -24.5t-5.5 -31.5t-9 -28.5t-12.5 -17.5v-76q-12 -4 -12 -19v-8q0 -11 -6 -20v-149 q4 -6 4.5 -12.5t1.5 -13t3 -12t9 -10.5v-102q11 -21 21 -45t21.5 -47t24.5 -45.5t31 -40.5l76 -84q4 -14 28 -35.5t58 -44.5t75 -46t79.5 -41.5t70.5 -30t49 -11.5q42 0 77 21t63.5 53.5t49.5 71t34 73.5q4 11 5.5 26t4 31t6 30.5t12.5 25.5v102q-5 5 -12.5 28.5t-16 49.5 t-17 47t-15.5 21h-47q-9 -9 -27.5 -24.5t-41 -34t-47 -37t-46.5 -34t-39.5 -25t-25.5 -9.5q-10 0 -17.5 8.5t-12 19.5t-7.5 21.5t-6 15.5q6 21 22 37.5t25 36.5l65 66q19 6 33 20t27.5 29t28 29t32.5 20l55 51q27 6 45.5 23t36 35t38 32t50.5 14h27q57 -49 88 -111t53 -128 l2 -2q2 -2 6 -2v-99l7 -4q-7 0 -7 -10t7 -10l-7 -4v-135q-9 -6 -24.5 -34t-35.5 -68l-43 -86t-48 -86t-50.5 -69t-50.5 -36l-55 -51q-17 -4 -40 -27q-39 -40 -87 -71t-98 -62q-12 -8 -24 -12t-24 -7t-23.5 -7t-22.5 -11h-92q-13 8 -49 31t-82 54t-95.5 66.5t-90.5 69t-68 62 t-27 45.5v4zM436 561q0 24 11 49.5t25 44.5v233q4 4 4 27q0 6 -4 10v94l4 9q0 12 -3.5 23t-7.5 22t-7.5 22t-3.5 23q0 34 19 58t44.5 45t51.5 41t39 46q6 19 24 40.5t38 43t36 41t18 35.5l109 113q0 8 10.5 22t24.5 27.5t29 23.5t24 10h57q21 -30 44 -61t44 -57t37.5 -45 t24.5 -25q18 -12 43.5 -23.5t49 -24.5t40 -29.5t16.5 -39.5q0 -26 -15 -45.5t-34.5 -37.5t-38 -37t-24.5 -43q-25 0 -41.5 -4.5t-38.5 -4.5q-31 0 -60 12.5t-55 32t-48.5 41.5t-41.5 41.5t-33 32t-24 12.5q-6 0 -24 -19t-37.5 -43t-34.5 -46t-15 -27v-102q6 -6 6 -19 q0 -11 -1 -17.5t-2 -11.5l-2 -10t-1 -12q0 -14 3 -25.5t3 -29.5q0 -9 -6 -17v-84l-10 -8v-94q-5 -3 -8.5 -9t-4.5 -16q-3 -32 -20 -74.5t-44.5 -80.5t-63.5 -64t-78 -26q-19 0 -33 7t-14 30z" />
<glyph unicode="H" horiz-adv-x="1496" d="M1097 -321q0 9 8.5 28.5t20 39.5t24 36t20.5 19v40q9 0 9 9q0 13 -3.5 24.5t-8 22t-8 21t-3.5 22.5l-41 43q-4 14 -13 35.5t-24 29.5v318q4 0 4 6q0 16 -2 20t-2 17q0 10 2 12t2 10q0 11 -4 11l4 4v55q-4 0 -4 10q0 8 4 8v254l-36 37q-19 0 -33.5 10.5t-27.5 22.5 t-26 22.5t-30 10.5q-22 0 -37 -14t-26 -31t-20.5 -32t-21.5 -17v-146q-7 0 -8.5 -5t-1.5 -11.5t-1 -11.5t-7 -5v-41l-8 -4v-51q-15 -8 -22 -22.5t-13 -28.5t-14.5 -25.5t-26.5 -13.5l-51 -51q-1 0 -9 -4.5t-18.5 -10t-20.5 -11t-14 -7.5l-4 -4h-14q-14 0 -22.5 2t-24.5 6v25 q0 7 3.5 24t9 36t12.5 35.5t14 20.5v74l4 10v95l-4 8l4 18l-4 19q0 10 8 10v383l10 10v113q2 2 11 27.5t19 56t17.5 58t7.5 34.5q11 4 20 13t9 26l61 65q2 8 21.5 24t48.5 35.5t64 40.5t68 37.5t60.5 27.5t41.5 11h22q3 -4 19 -15.5t39.5 -26.5t50 -32t49 -32.5t37.5 -28 t16 -18.5h43q0 -5 6 -8.5t12.5 -8t12.5 -10.5t6 -16q0 -12 -8.5 -30.5t-20.5 -38t-25 -36.5t-22 -26q-5 -5 -12.5 -8t-15.5 -5.5t-15.5 -5.5t-11.5 -8h-127q-30 23 -61 46t-56.5 42t-44 32t-24.5 15h-19l-47 -47v-80q-5 0 -7 -3.5t-3.5 -7.5t-3 -7.5t-4.5 -3.5v-70l-11 -6 v-45q6 0 6 -14q0 -15 -6 -15v-121l6 -6q-6 0 -6 -8v-10q0 -6 4.5 -19.5t10.5 -13.5q9 0 16.5 8t15 18.5t14.5 19.5t15 11l55 52l11 4l55 51h51l43 -43q3 0 27.5 -16t54.5 -36.5t59 -39.5t41 -25l5 -4h51q10 -22 28 -22v-15q0 -14 -4 -31.5t-18 -25.5v-59l-10 -7v-135l-11 -4 v-80q-8 0 -8 -14q0 -6 2 -10t2 -21q0 -6 -4 -6v-47q4 0 4 -14q0 -11 -2 -14t-2 -13v-8q0 -10 4 -10l-4 -7v-131l4 -4v-55q-4 0 -4 -8v-21q0 -10 4 -10q-4 0 -4 -8q0 -12 11 -29.5t25 -38l28 -41t20 -37.5l4 -4v-47l-4 -4v-51q-1 0 -9.5 -20.5t-19 -45.5t-20 -47.5 t-12.5 -27.5q-18 -29 -39 -48.5t-45 -35.5t-50 -31.5t-53 -34.5h-61q-10 0 -10 10q0 4 1 6.5t1 6.5zM1316 -278q2 0 4 -2q0 -2 -4 -2t-4 2q0 1 1 1q2 0 3 1zM-73 -67q0 14 5.5 26.5t13 24.5t16.5 23.5t16 23.5q61 99 154 146t207 73q8 0 8 10h86l8 4l11 -4l8 4h33 q0 -4 10 -4q4 0 7 2t11 2l4 -4h70l6 -10h80q0 -8 6 -10t12 -2h9q12 0 14 -6h94l19 14h51l18 -18v-66q-1 -2 -8.5 -12.5t-16 -22t-15.5 -21t-7 -10.5l-37 -38q-3 0 -14.5 -8.5t-28 -19.5t-36 -20.5t-38.5 -11.5q-8 0 -18 -4t-14 -10h-62q-10 10 -38 12.5t-61 5t-65.5 6.5 t-50.5 17h-102l-4 -4h-80q0 -4 -17.5 -10.5t-39 -14t-41 -15t-23.5 -12.5q-15 -8 -29 -23t-28 -29.5t-29 -25t-31 -10.5q-22 0 -32.5 16.5t-10.5 35.5zM263 428q0 11 0.5 18.5t2.5 15t7.5 16t14.5 20.5l-4 18l4 11v83l-4 9v65q4 12 4 19q0 8 -4.5 22.5t-11.5 28.5t-16 24.5 t-19 10.5h-95l-10 8v65q10 15 17 29.5t14.5 28t17.5 25.5t27 20q5 2 19 4t28.5 5t25.5 7.5t11 11.5v132q6 6 9.5 18.5t6.5 27t6 28t7 20.5q2 8 14.5 24t29.5 35.5t37.5 40t40 37.5t35.5 28t25 11q10 0 23.5 -2t13.5 -17v-73q-7 -2 -8.5 -7.5t-2.5 -12.5t-2.5 -13t-9.5 -10 v-576q-10 0 -12.5 -11t-3 -23.5t-2.5 -23.5t-11 -11v-52q-16 -6 -30.5 -29t-31 -51t-35.5 -54.5t-44 -39.5l-4 -4h-22q-19 0 -33.5 2t-24.5 17v24zM857 703q0 -4 -2 -4q-1 0 -1 1q0 2 -1 3q0 2 2 4q2 0 2 -4z" />
<glyph unicode="I" horiz-adv-x="1039" d="M7 -56v8q0 21 12 45.5t26 46t26 38t12 20.5l64 65q6 0 23.5 7t36.5 16.5t34.5 19.5t17.5 15h127q3 -6 11.5 -8.5t17.5 -4.5t15.5 -4.5t6.5 -7.5h62q0 -8 8 -8q22 0 37.5 9.5t28 21t24.5 22t27 12.5v1072q4 0 9 14t10.5 31.5t10.5 34t9 22.5q20 27 38.5 49t39 40.5 t43.5 34t51 30.5l4 4h24q6 0 17 -2t22 -6.5t19 -11.5t8 -17v-47q-4 -6 -12.5 -17t-17 -24t-15 -25t-6.5 -18v-457l4 -10l-4 -15q0 -8 8 -14v-74l6 -10l-6 -8v-10q0 -11 3 -17t3 -16v-14l-6 -9l6 -10v-8q0 -13 -6 -21v-102q-8 -2 -8 -18l4 -19l-4 -10l4 -8v-66 q-6 -6 -10.5 -23.5t-8 -38t-8 -40t-10.5 -29.5q-23 -37 -52.5 -91t-62.5 -107.5t-68.5 -99t-70.5 -66.5q-7 -7 -30.5 -19t-49 -24t-46.5 -21.5t-23 -11.5h-60q-3 8 -12 8q-2 0 -5.5 -1t-5.5 -1q-10 0 -10 12h-51q-4 7 -10 9.5t-13 4t-12.5 3.5t-7.5 8h-80q0 -2 1 -2t1 -2 q0 -7 -12.5 -20t-29 -25.5t-33.5 -21.5t-25 -9q-14 0 -18 3t-15 7zM317 458q6 4 6 11.5t8 11.5v84l-6 6v135l-23 18h-43q-3 -8 -11 -8q-2 0 -5 1t-5 1q-8 0 -11 -8h-52q0 10 -4.5 15.5t-9.5 10.5t-9.5 10.5t-4.5 14.5q0 16 9 30t19.5 26.5t19.5 25.5t9 27l37 37q2 0 14 6.5 t25.5 15.5t25 17.5t11.5 11.5v135q0 2 10 28.5t28.5 61t45 67.5t59.5 46l6 4h41l6 -4q4 0 11.5 -3t11.5 -3v-45l-4 -7v-51l-11 -4v-80l-8 -4v-47l8 -4v-51l11 -6v-80q4 0 4 -4q0 -7 -0.5 -11t-1.5 -6t-1.5 -4.5t-0.5 -7.5q0 -8 4 -8v-215q-2 0 -9 -23.5t-17.5 -59t-25 -76.5 t-33.5 -76.5t-42 -59t-51 -23.5q-3 0 -10 1.5t-13.5 4t-12 6t-5.5 7.5v102v0zM7 1421v2q0 5 11 21.5t30.5 39.5t45.5 48.5t56 46.5t63 35t65 14q10 0 10 -7h51l15 -18h40q0 -8 9.5 -11t21.5 -4t21.5 -3t9.5 -9h156q13 0 15.5 -11.5t2.5 -22.5q0 -21 -12.5 -43t-30.5 -41.5 t-38 -35.5t-36 -24q0 -10 -11.5 -13.5t-27 -5.5t-30.5 -6.5t-21 -17.5h-41l-6 10h-51q0 4 -9.5 9.5t-13.5 5.5l-14 -6q0 2 -2 4t-2 6h-80l-4 4h-53q-2 -5 -10.5 -10t-18 -10t-19 -10.5t-12.5 -10.5h-43l-37 37v37z" />
<glyph unicode="J" horiz-adv-x="940" d="M289 -187q0 6 -9 6h-18q-14 0 -14 12h-43q-1 5 -11.5 10t-23 8.5t-24 6t-15.5 2.5q0 5 -7 13t-16.5 15.5t-19 13t-14.5 5.5l-56 57q0 3 -5 15t-12 27.5t-14.5 31t-11.5 24.5l-4 4v95q3 1 10.5 14.5t17.5 33t22.5 42t24 41.5t21.5 32t17 13h59q7 0 14.5 -14.5t16.5 -37 t20.5 -50t26 -53t33 -46t41.5 -29.5q6 -2 29 -11.5t49 -20.5t47.5 -20.5t23.5 -12.5h103q0 6 4 6h14l10 -6l4 6q5 0 12 2t11 2l61 62v73q-8 11 -17 41t-19 62.5t-22 60t-26 33.5v37q5 0 5 6q0 22 -5 22q5 0 5 11q0 6 -2.5 9t-2.5 13v10q0 9 5 9v243l-5 4l5 5v86l-5 4l5 4v94 l-5 4q5 0 5 6v17q0 6 -5 6v139l5 6v45q-5 0 -5 10v11q0 4 -1 6t-1 4q0 8 11 8v59q8 5 12.5 13t7 17.5t3.5 19t1 16.5q12 3 23.5 17.5t23.5 34.5t25.5 42t30.5 40.5t37.5 31t46.5 12.5q12 0 18.5 -3t11.5 -7.5t11 -9.5t16 -8v-242l-6 -10v-74l6 -10l-6 -11v-325q-8 0 -8 -10 l4 -11v-22q0 -15 -2 -21t-2 -16l4 -14l-4 -11l4 -12q0 -8 -2 -15t-2 -14q0 -16 4 -24v-111q-4 -8 -4 -14q0 -31 8 -59.5t17.5 -54.5t17.5 -51t8 -50v-6l-6 -9l6 -10l-6 -8v-65q-15 -9 -22 -24t-12 -31.5t-10 -32t-16 -25.5q-108 -107 -177 -168q-34 -33 -67 -52t-65 -32 q-12 -5 -26.5 -7t-29.5 -4.5t-29.5 -6t-27.5 -11.5h-51l-4 11h-61zM280 363q7 5 7 12t8 11v197l-6 6q6 0 6 12q0 14 -6 14q6 0 6 11q0 8 -7 15.5t-17 13t-20.5 9t-17.5 3.5q-9 0 -14 -5h-51q-4 0 -9.5 6.5t-9.5 15t-7 16t-3 10.5q0 35 18.5 61t44 47t52.5 38.5t45 35.5v117 q1 0 8.5 11t18.5 28.5t25 38.5t28.5 40.5t28.5 34.5t26 21l4 4h25q8 0 13 -2t9.5 -4.5t10 -6t14.5 -6.5v-57l-6 -8v-66q-9 -6 -9 -24v-15l5 -8l-5 -10v-533q-6 -6 -15.5 -16.5t-19 -22.5t-17 -24t-9.5 -21l-84 -84h-51q-7 0 -10.5 12.5t-8.5 16.5v55zM74 1318q9 4 21 20.5 t24 36t22.5 38t16.5 26.5q6 11 21 19.5t31.5 16t31 14.5t20.5 15h143q9 -8 20 -7t19 -7h66q3 8 11 8q2 0 5.5 -1t5.5 -1q8 0 11 8h59q4 -4 12 -9t17 -9v-29q-21 -6 -34 -27.5t-29.5 -48t-42 -53t-73.5 -43.5q-14 -4 -28.5 -14.5t-36.5 -10.5q-8 0 -8 11h-80l-4 4h-25 q-22 0 -39.5 -8t-32.5 -17.5t-30 -17.5t-33 -8h-25q-4 10 -14 14t-16 18l-6 4v58z" />
<glyph unicode="K" horiz-adv-x="1457" d="M-34 -71q0 25 13 52.5t29 53t29 46t13 30.5l76 74q20 8 38.5 27.5t34.5 30.5q19 10 40.5 13t35.5 13h186q20 -11 45 -11h12q24 0 38 -11h65q3 -7 12 -10.5t20 -5.5t22.5 -2.5t18.5 -0.5q18 0 36 6.5t35.5 14t35 14t35.5 6.5q9 0 14.5 -4t10.5 -9t10.5 -9t15.5 -4v-48 q-12 -8 -27.5 -28t-33.5 -45t-38 -52t-41 -49t-43.5 -36.5t-45.5 -14.5h-113q-5 4 -13 7.5t-16.5 6.5t-15.5 6.5t-10 8.5h-65q-7 6 -16 8t-18.5 3.5t-18 5t-13.5 11.5h-65l-11 5h-92q-7 -6 -14 -9.5t-14 -6t-14.5 -5.5t-14.5 -8q-11 -8 -24 -30.5t-28 -45.5t-31.5 -41 t-33.5 -18q-29 0 -40 18.5t-11 42.5zM1033 159q6 6 6 22v19q0 12 6 24v102q0 10 -7 19.5t-16.5 17.5t-19.5 15.5t-16 13.5h-123q-6 0 -16.5 10t-10.5 17v65q19 23 45 50.5t55 53.5t59 47t56 31l4 7v47q-22 22 -37 34.5t-27 21t-22.5 15.5t-21.5 17h-12q-9 0 -12.5 -0.5 t-5.5 -1.5t-4.5 -3t-10.5 -5l-43 -41q-9 0 -14.5 -5t-11 -11.5t-11 -11.5t-14.5 -5l-56 -58v-51q-1 0 -6.5 -11t-13.5 -27.5t-18 -37t-20.5 -39.5t-19.5 -33.5t-16 -19.5q-18 -14 -35.5 -33.5t-37 -37t-41.5 -29.5t-50 -12h-22q-4 10 -12.5 19t-8.5 20v8q6 11 16.5 26.5 t20.5 32.5t17.5 34.5t7.5 33.5l-4 14q0 14 7 31.5t7 34.5l-6 8v65l6 11l-6 8v168l-8 10v233q8 11 12 28t6 35.5l4 37t6 31.5q26 75 51.5 127.5t60 93t81.5 74.5t114 73q33 19 64 36t72 17h20q4 -8 15.5 -18t21.5 -10l74 -76q0 -3 10 -17t23 -30t24 -28.5t14 -12.5h56 q5 0 11.5 5t13.5 11.5t14.5 11.5t15.5 5q9 0 19.5 -5.5t20 -14.5t15.5 -20t6 -22q0 -13 -7.5 -23t-16 -19t-16 -18t-7.5 -20l-80 -77v-5q0 -13 -12 -18.5t-27.5 -8.5t-30 -7t-18.5 -13h-106q-27 25 -47 27l-76 76l-4 8l-62 61h-14q-18 0 -27 -9.5t-14.5 -22l-11 -25 t-17.5 -18.5v-60q-8 0 -8 -12v-11t4 -5v-48q-4 0 -4 -8q0 -4 2 -7t2 -7t-2 -7t-2 -7q0 -5 2 -8t2 -7q0 -8 -4 -8v-39l4 -4v-47l-4 -4v-55l4 -7l-4 -4v-37q7 -2 8.5 -8.5t2 -13t3.5 -12t13 -5.5q19 0 37 12.5t35.5 29t34.5 32t34 21.5l56 51q12 0 23.5 6t23 12.5t24 12.5 t27.5 6q3 0 10 -1t14.5 -3t13 -5.5t5.5 -9.5v-4l65 -65h4q11 0 19 -9.5t16 -21.5t17.5 -21.5t21.5 -9.5l47 -45q0 -22 9.5 -40.5t9.5 -35.5q0 -9 -3 -12.5t-6.5 -7t-6.5 -9t-3 -18.5l-102 -102q-16 0 -24.5 -13.5t-8.5 -29.5v-19q37 -3 60.5 -25t38.5 -48t23 -47t13 -23 v-151l-4 -5v-73q10 -6 23.5 -18.5t28.5 -25.5t30.5 -22.5t30.5 -9.5l8 4h51l29 -27q-6 -2 -14 -13.5t-15.5 -25.5t-12.5 -27t-5 -18l-84 -83q-4 0 -16.5 -9.5t-38.5 -19.5h-91q-9 6 -27 16.5t-39.5 24t-44 29t-41 32t-30.5 33.5t-12 33v76v0zM199 443q0 5 2.5 15.5t6.5 21.5 t8 20.5t8 12.5v186l-4 8q-1 11 -6 13l-4 4h-58q-4 -4 -10 -4q-15 0 -23 2.5t-13.5 7.5t-9 11.5t-9.5 15.5v22q0 32 14.5 56t34 44t41.5 37.5t37 36.5q10 12 11.5 29t2 34t2.5 32.5t12 25.5q-2 5 -2 14q0 57 17.5 90t41 56t48 45t39.5 57h47q4 -14 16 -25.5t12 -25.5 q0 -3 -2.5 -12t-5.5 -18.5t-7 -18.5t-7 -12v-328q6 -1 6 -12q0 -24 -3 -36t-3 -32q0 -14 2 -22.5t2 -18.5q0 -8 -2 -12t-2 -11q0 -8 2 -12t2 -12q0 -23 -9.5 -52.5t-21 -56t-21 -46t-9.5 -23.5l4 -8q0 -24 -10 -45.5t-25 -40t-33 -34.5t-35 -30h-55q-6 0 -11 7t-9 16 t-6.5 17t-2.5 11z" />
<glyph unicode="L" horiz-adv-x="1293" d="M108 -35q0 16 4 29.5t4 29.5q18 6 30.5 22t22 36l19 40t22.5 33q29 31 65 53.5t81 36.5l4 5h256q4 -7 16 -7h12q15 0 15 -8h41l6 -10h80q0 -7 5 -8.5t11 -1.5t11 -1t5 -7h52l4 -9h80l4 -10h135q2 5 9.5 7.5t16.5 4l18 3t13 4.5q7 5 21 15.5t28 23t25.5 23.5t13.5 17h33 q2 -5 9.5 -8.5t16 -7t15 -9.5t6.5 -16q0 -25 -17.5 -50t-39 -48.5t-39 -45t-17.5 -40.5l-83 -84q-12 0 -29 -5.5t-33.5 -14t-30.5 -18t-20 -17.5h-164l-4 10h-51l-4 8h-43l-4 11h-70q0 3 -4 4.5t-8.5 2.5t-8.5 3t-4 8h-41l-6 8h-59l-6 10h-52q0 7 -5 8t-11 1.5t-11 1.5t-5 8 h-146q-4 4 -12 4t-15.5 -4t-17.5 -4l-53 -51q-9 0 -14.5 -4.5t-10.5 -10t-11.5 -10t-18.5 -4.5q-17 0 -29 12t-12 31zM415 389q9 5 15 19.5t12 31t13 30.5t17 17v51l8 6v594l11 4v41l8 7v41l10 6v51q3 0 8 11.5t9.5 26.5t8 28.5t3.5 17.5q3 0 18.5 19.5t34.5 44t38 47 t30 28.5q32 25 62.5 46.5t59.5 40.5t63 38t73 39l4 4h59q2 -9 12 -16.5t21 -15t20 -15.5t9 -19v-4l36 -36q15 -15 28.5 -29t26 -25.5t23 -19.5t17.5 -10q4 0 13.5 -5t19.5 -11.5t18.5 -11.5t9.5 -5v-66l-39 -37q-9 -2 -21.5 -15.5t-25.5 -28.5t-23 -27.5t-14 -12.5h-41 q0 -10 -6 -10h-16q-10 0 -10 10h-43q-7 12 -22.5 20t-31.5 16t-29.5 17.5t-15.5 24.5l-51 51q-2 12 -6 16t-8.5 5.5l-9 3t-9.5 8.5h-41q0 -1 -6 -8.5t-13 -16t-13.5 -14.5l-6.5 -6v-61q-10 0 -10 -8q0 -3 1 -5t1 -6v-8q0 -10 4 -10l-4 -6v-103l4 -4q-4 0 -4 -10q0 -8 4 -8 q-4 0 -4 -10q0 -9 8 -9v-239l7 -4v-84q-7 0 -7 -11q0 -8 7 -8l-7 -6v-143q-2 0 -9 -18.5t-14 -41.5t-12.5 -44.5t-5.5 -26.5q-4 0 -13 -13.5t-18.5 -30t-18 -30.5t-11.5 -16q-14 -8 -14 -23l-37 -37q-8 0 -20.5 -6t-26.5 -13.5t-27.5 -14.5t-24.5 -9l-4 -4h-51q0 4 -3 11 t-3 12l-4 4v47zM171 450q0 17 7.5 41.5t17.5 38.5v84l-4 8l4 10v84q0 10 -10.5 15t-24.5 7.5t-28 2.5h-21h-14l-5 -6h-51l-10 10v66q25 23 31 54q5 25 18 46t30.5 40t38.5 37.5t42 37.5v65l4 8v13q0 27 10 64t27.5 77.5t41 80t51 70.5t58 50.5t60.5 19.5q2 0 7 -1.5 t10.5 -4.5t10 -6t4.5 -6v-76q-7 -6 -13 -21t-11.5 -31.5t-12 -30t-14.5 -15.5v-99q-6 0 -9.5 -9t-6 -20t-3.5 -21t-1 -13q0 -10 6 -10q-4 0 -4 -11q0 -4 2 -7t2 -7q0 -8 -4 -8v-182l-10 -4v-58l4 -4l-4 -4v-39q6 0 6 -8q0 -16 -3 -20.5t-3 -12.5q0 -10 4 -10v-74 q-4 0 -4 -10q0 -8 4 -8q-9 -25 -19 -51.5t-19 -49t-16.5 -39t-11.5 -20.5q-6 -10 -21.5 -22.5t-32 -24t-30.5 -21.5t-18 -16h-15q-16 0 -27.5 5t-19.5 24v22z" />
<glyph unicode="M" horiz-adv-x="1852" d="M1 -32q4 2 8.5 11.5t8.5 20.5t7.5 21t4.5 13q10 16 33.5 45t53 57.5t61 50t55.5 21.5h6q2 3 6 4.5t8.5 3t7.5 3.5t3 7h41q0 7 8 7q24 0 30 -7h66q5 -13 12 -15.5t17 -2.5q29 0 40 9t15.5 21.5t8.5 25t18 18.5v102l-5 6v486l5 4v170q-5 0 -5 10v16q0 11 11 11v41l8 6v69 q3 0 11.5 15t22 38.5t30 50.5t36 51.5t40.5 42t42 21.5l43 43q2 0 13 7.5t26 19.5t32 26t31.5 26.5t25 22t11.5 11.5h25q18 0 32.5 -11.5t28 -26.5t27.5 -28.5t33 -17.5l57 -53q10 0 15 -4t10 -9.5t11.5 -9.5t18.5 -4t20.5 6.5t15.5 15t14 16t16 9.5l121 117q24 8 47 8 q3 0 24.5 -12t53 -30.5t67 -40.5t67 -42t53.5 -34.5t26 -18.5l-6 -18l6 -9v-6q0 -13 -6 -26t-13.5 -26.5t-13.5 -28.5t-6 -33v-11q-4 -4 -4 -12q0 -20 2 -27.5t2 -21.5q0 -3 -4 -14v-318l4 -10v-326q-4 -11 -4 -14q0 -10 2 -19.5t2 -19.5q0 -8 -4 -12v-76q11 -15 20.5 -44.5 t22 -59.5t30 -52t43.5 -22q23 0 36.5 7t33.5 7q8 0 16.5 -2t12.5 -12v-19q0 -23 -13 -48.5t-34.5 -49t-48.5 -45t-55.5 -37.5t-55 -25.5t-47.5 -9.5q-30 0 -54.5 13.5t-44.5 35.5t-36 49.5t-30 55.5t-26.5 54t-25.5 44v58l4 8l-4 10q0 10 8 10v121l4 10l-4 9v14q0 8 2 14 t2 15q0 10 -2 16t-2 16v19l4 8l-4 10v244q-8 2 -8 22q0 11 2 17t2 16t-2 16.5t-2 16.5v14l4 8l-4 11v149l8 10v66q4 4 4 18l-4 19l4 8v47q-9 12 -22.5 26t-28.5 26t-32 20t-34 8q-5 0 -16.5 -6.5t-23 -15.5t-20.5 -17.5t-9 -11.5v-273l14 -12h14q15 0 23 2t24 2 q17 0 33.5 -11t26.5 -26v-18q0 -13 -8.5 -32.5t-22.5 -43t-31 -47.5t-33 -45t-29.5 -36t-21.5 -21v-103q-8 -6 -8 -24q0 -13 3 -24t3 -34q0 -6 -6 -12v-65l4 -9l-4 -10l4 -14q0 -6 -2 -8t-2 -11q0 -8 2 -10t2 -8q0 -10 -4 -14v-103q0 -20 14.5 -33.5t35 -22.5t42 -15.5 t35.5 -12.5v-76l-61 -65q-6 -20 -18 -27.5t-26.5 -10.5t-29 -5.5t-25.5 -11.5h-65l-10 4q-2 0 -8 0.5t-12.5 1.5t-12.5 1.5t-8 0.5v4q0 12 -13.5 23.5t-33.5 21.5t-44 19.5t-45.5 17t-38 14.5t-22.5 12l-4 15l-6 4v39q10 4 21.5 18t23.5 31t24.5 33t24.5 24v258l10 4v99l4 4 v102l-18 10l-18 -4l-11 4l-8 -4h-43l-4 4q-4 0 -12 2.5t-13 2.5v75q4 2 18.5 22t34.5 50t42 65.5t41 67.5q0 4 -2 7t-2 7q0 11 2 13t2 14q0 6 -4 6v80q-9 0 -9 8t2 11.5t2 13.5q0 11 -3.5 20.5t-8.5 19t-9.5 19t-6.5 21.5l-47 45q-4 0 -16.5 9t-39.5 19h-37q-1 0 -5 -4 t-9 -10t-10 -13t-8 -13v-66l4 -10l-4 -15q0 -6 2 -8t2 -10q0 -3 -4 -14v-328l4 -8l-4 -10l4 -19q0 -14 -4 -18v-66l8 -8v-197q6 -6 6 -14t-3 -14t-3 -15q0 -10 3 -16t3 -16q0 -14 -6 -19v-84q-19 -25 -32 -59.5t-26.5 -69.5t-31 -66t-45.5 -49q-13 -6 -34.5 -20.5 t-43.5 -30.5t-39.5 -30.5t-22.5 -20.5q-16 -8 -33.5 -17.5t-31.5 -19.5q-25 -4 -56.5 -9t-56.5 -5q-24 0 -48.5 4t-49.5 4h-47q-16 -6 -28.5 -25.5t-25 -41t-26.5 -38t-33 -16.5h-4q-22 0 -27.5 17.5t-5.5 37.5v33v47zM198 343q0 8 5 20.5t11 25.5l12 26t9 22l4 4v187 q0 7 -5 8.5t-10 1.5q-14 0 -23.5 -5t-17.5 -11.5t-16.5 -11.5t-19.5 -5t-18 5.5t-12 13t-9.5 15.5t-11.5 13v45q14 8 24 28t24.5 43.5t36 46.5t58.5 38q6 0 10 4l4 4v135q3 0 10.5 18t16.5 41t17.5 44.5t13.5 28.5q6 8 16 16t10 22l47 48q9 0 21 7t16 11h43l10 -10v-84 q-6 0 -10 -4t-4 -6l4 -9l-4 -10v-74l4 -10l-4 -8v-207q-10 0 -10 -8l4 -10l-4 -11v-260q-8 0 -8 -10l4 -10q0 -21 -10.5 -34t-18.5 -30l-121 -123q-12 -6 -18 -18h-51q-12 0 -18 5t-8.5 12t-2.5 15.5v14.5zM57 1343q7 2 22 27t36.5 56.5t48.5 60t57 38.5q4 0 14 6t10 14h41 q0 4 10 4q9 0 28.5 -1t40.5 -4t39 -7.5t23 -11.5h103q2 6 7.5 7.5t12 3t13 4t10.5 9.5h59q8 0 14.5 -4.5t11.5 -11.5t8 -14t3 -13v-4l-51 -55q0 -25 -26 -51.5t-61 -49t-70.5 -37t-53.5 -14.5q-8 0 -8 7h-197q-6 0 -15 -11t-21.5 -24t-28 -24t-33.5 -11q-1 0 -9 3t-16 7.5 t-15 9t-7 7.5v84v0z" />
<glyph unicode="N" horiz-adv-x="1509" d="M1070 53q-1 2 -17 30t-43 75t-62 108t-74 128t-79.5 136t-77 131.5t-67 114.5t-50.5 85l-36 60q-8 20 -26.5 56t-40 73.5t-44 68.5t-38.5 42q0 -4 -2 -11.5t-6 -7.5v-69q-10 0 -10 -10q0 -9 2 -11t2 -12t-2 -13t-2 -12q0 -6 2 -8t2 -10t-2 -10t-2 -8q0 -4 2 -7.5t2 -7.5 q0 -6 -0.5 -8t-1.5 -3.5t-1.5 -5t-0.5 -13.5q0 -13 10 -13v-106l4 -4v-58l-4 -4v-168l4 -4v-225q-4 0 -4 -15q0 -5 1.5 -9.5t6.5 -4.5v-41q4 0 11 -3t7 -7h62q0 -9 10 -11t22.5 -3.5t23.5 -3.5t13 -11h84q6 0 14.5 7t16 16t12.5 18t5 13h88q4 -9 7 -11t5.5 -3t5 -4t6.5 -15 l4 -6v-37q-6 -2 -10.5 -13t-9 -24.5t-11 -27t-16.5 -19.5q-14 -9 -22.5 -25t-24.5 -32q-31 -31 -61.5 -53.5t-73.5 -43.5l-4 -6h-62q-15 13 -35 17t-41 6t-40 5t-33 15h-139q-11 0 -20 -11t-18.5 -23.5t-20.5 -23.5t-25 -11q-12 0 -20.5 5.5t-14.5 13.5t-9 17.5t-3 18.5 q0 10 2 16t2 17q0 10 -2 14t-13 8q6 15 13.5 27t15 23t13.5 22.5t9 25.5l62 62q4 2 16.5 8t25.5 13.5t23.5 14.5t10.5 11v289l4 10v65q-6 8 -6 17q0 4 1 8t1 8t-1 8.5t-1 8.5q0 10 6 16v244l-4 8v338q6 6 6 14q0 3 -1 13.5t-4.5 22t-10.5 20t-19 8.5h-66q-10 0 -19 -9.5 t-18 -20.5t-20 -20.5t-26 -9.5q-7 0 -15.5 0.5t-16 2.5t-12 8t-4.5 16v65q0 19 11 37.5t25 36t28 34.5t20 34l76 73q5 0 16 6.5t23 15t22 16t13 10.5h84q5 0 12.5 -4t16 -9t17 -9.5t15.5 -6.5l37 -37q11 -35 50 -77q29 -31 47 -55t31 -45t23 -40t23 -39q64 -99 129 -195.5 t119 -201.5q35 -68 68.5 -140.5t74.5 -136.5q9 -10 25 -23.5t22 -23.5l7 4v703l-15 14q-28 0 -48.5 4t-45.5 4h-18l-43 -41h-52q-9 0 -14 8t-7.5 18.5t-3.5 20t-1 13.5v24q30 59 63 109t86 88q7 5 15 7t16.5 2.5t17 2t17.5 6.5h98l4 -4h41q0 -8 16 -12.5t36 -8.5l37.5 -7.5 t19.5 -10.5h117q4 8 14 11.5t18 13.5h51l29 -29v-65q0 -6 -13 -19.5t-29 -30t-29 -34t-13 -29.5l-39 -37q-4 -3 -16 -8t-25 -12l-32 -17h-80q-6 0 -9.5 -8t-5.5 -19t-3 -22t-1 -16q0 -10 2 -13.5t2 -11.5q0 -4 -2 -7t-2 -7q0 -8 4 -8q-4 0 -4 -11q0 -8 4 -8l-4 -6v-37 q4 0 4 -8q0 -4 -2 -7t-2 -7q0 -11 4 -11l-4 -4v-346l4 -4v-57l-4 -4v-154q-10 0 -10 -10q0 -4 3 -7t3 -7q0 -9 -6 -9v-141q9 -5 16.5 -14.5t14 -20l13 -21t13.5 -18.5q6 -6 18 -9t23.5 -6t21 -8t11.5 -16h72q7 0 11 -5.5t5.5 -12t1.5 -13.5v-10v-18q-5 -1 -13.5 -13t-20 -30 t-24 -39.5t-24.5 -40.5t-23 -34.5t-18 -20.5q-8 -9 -19 -16t-23 -14t-23 -15.5t-19 -20.5h-98q-2 10 -9.5 27.5t-18 35.5t-22.5 32t-24 18z" />
<glyph unicode="O" horiz-adv-x="1383" d="M622 -34q-7 10 -22 18t-32.5 14.5t-35.5 12.5t-31 12q-24 16 -45 40.5t-43 37.5q-58 35 -101 82.5t-76.5 102.5t-60.5 115.5t-53 121.5l-4 4v43q-8 3 -11 9t-5 12.5t-4.5 12t-8.5 7.5v272l10 4v52l8 4v51l11 6v41q3 0 5.5 4.5t5.5 10t6.5 11t8.5 7.5v43q13 32 26 63 t25 57t20.5 44t12.5 22q12 14 30 38.5t38 50t39.5 48t34.5 31.5q6 4 22.5 14t35 21.5t34.5 23t20 17.5h51q12 0 18 -5t8.5 -12t2.5 -15.5v-14.5v-19q-4 -2 -22 -19.5t-38 -38.5t-36 -40t-16 -24l-52 -52q0 -9 -6.5 -23.5t-15 -30t-17 -30t-12.5 -22.5l-6 -4v-43 q-7 -1 -10 -7t-4.5 -13t-4 -13.5t-8.5 -9.5v-107l-10 -4v-39l4 -4q-4 0 -4 -22q0 -7 4 -7q-4 0 -4 -8q0 -10 10 -10v-70q2 0 8.5 -24t15.5 -55t17.5 -60t14.5 -39q4 -7 13 -17.5t18.5 -22.5t16.5 -23.5t7 -20.5h14q11 0 15 9.5t6 21.5t5 22.5t11 12.5v262l-4 4q4 0 4 6v17 q0 6 -4 6v164q-5 0 -7 2.5t-3 6.5t-2.5 7.5t-5.5 5.5v66q8 4 16 17t15.5 29.5t13.5 32.5t10 25q16 22 40.5 39.5t39.5 38.5q4 7 21 30.5t41.5 55t53.5 67.5t56.5 67t51.5 53t38 26l4 6h43q4 -8 12.5 -8t16.5 -10q7 -8 10.5 -17.5t6 -19t6 -18.5t9.5 -17q15 -18 38.5 -36 t49 -35.5t51 -35.5t44.5 -36q27 -29 47 -61.5t37 -66t33 -68t36 -67.5v-84l11 -10v-65l4 -9l-4 -10l4 -10v-74l-4 -10l4 -8l-4 -10v-66l-11 -8v-66q-1 0 -4.5 -13.5t-9 -34t-11.5 -45t-11.5 -46.5t-9.5 -37.5t-5 -19.5l-4 -11q0 -4 -3 -13t-3 -13l-37 -76q-3 0 -22 -27 t-46.5 -68t-61 -90.5t-65.5 -94t-60 -78t-44 -43.5q-5 -6 -18.5 -16.5t-30 -23.5t-34 -27.5t-30.5 -27.5h-79q-3 6 -9.5 6.5t-13.5 0.5t-12.5 2t-5.5 10h-43zM757 271q0 -6 7 -9.5t16 -6t18 -3.5t12 -1q31 0 55 13t44.5 32t39 41.5t37.5 40.5q6 6 15.5 20.5t18.5 29.5 t15.5 26.5t7.5 11.5v43q3 0 5 3.5t3.5 7.5t4 7.5t6.5 3.5v43l8 4v135l10 7v51q4 0 4 8q0 10 -4 10v51l-10 4v62q-8 0 -10.5 7.5t-4 16.5t-3.5 17t-9 10v43q-6 0 -8 2l-2 2q-4 10 -18.5 39.5t-36 67.5t-48 79.5t-54.5 76t-55 57t-50 22.5q-13 0 -21 -6t-14.5 -15t-13 -19 t-16.5 -17v-270l10 -5v-163l4 -7q-4 0 -4 -8q0 -10 4 -10v-37l-4 -4q-9 -24 -17 -45t-17 -40.5t-20 -38.5t-26 -40q-4 -7 -17 -19.5t-30 -28t-36 -32t-34.5 -30.5t-26 -24.5t-10.5 -14.5q0 -5 3 -8t6.5 -6t6.5 -7t3 -12l102 -104q5 -3 23 -11.5t38 -19t36 -20t16 -13.5h41v0 z" />
<glyph unicode="P" horiz-adv-x="1387" d="M17 -34q4 2 7 7.5l6 11t6.5 9.5t9.5 4v41q12 8 24.5 24t23.5 34.5t20 36t16 28.5q11 19 30 30t40.5 19t43.5 15t39 16l2 2q3 2 3 6h71l4 4h127q4 -4 19 -4q6 0 8 2t10 2l8 -4h142q0 -8 8 -8l14 4l15 -4l10 4h14q14 0 22.5 -2t22.5 -2q22 0 42 5t38.5 11.5t37.5 11.5t38 5 h26q3 -9 8 -14l9.5 -9.5t8 -9.5t3.5 -14q0 -19 -13 -35.5t-29 -32.5t-29 -33.5t-13 -40.5l-55 -55q-9 -2 -21 -8.5t-23.5 -14.5t-22 -17t-17.5 -17h-211l-4 10h-62l-4 10h-43l-4 4h-225q-18 -13 -34.5 -40.5t-31 -55t-26.5 -48t-21 -20.5h-59q0 11 -10.5 22t-18.5 15v95z M531 410q0 6 4.5 16.5t11 20.5t12.5 18t9 10v41l6 7v215q-6 0 -6 8q0 10 6 10v150l-6 4q6 0 6 10v8q0 10 -3 14t-3 15q0 14 10 14v322q7 0 9.5 9.5t4 21t4.5 21t11 9.5v43q6 0 20.5 20t35 50t44 65.5t48 66t48 51t42.5 21.5l65 62q12 6 20.5 12.5t16.5 12t17 9t22 3.5 q26 0 45.5 -14t37.5 -33.5t35.5 -39t39.5 -30.5q39 -16 75 -41t67.5 -56.5t57 -67t43.5 -73.5q6 -9 10 -24t8 -31.5t8.5 -32t10.5 -24.5v-103l-4 -10v-65q-18 -15 -29 -47.5t-23.5 -69.5t-31 -73t-51.5 -58q-10 -6 -10 -14l-56 -56q-27 -9 -46.5 -23t-36 -30.5t-32 -32.5 t-35 -29.5t-45.5 -21.5t-63 -8q-20 0 -38.5 5t-35.5 11.5t-33.5 11.5t-31.5 5h-6v-33q1 -5 1 -9v-9q0 -23 -4.5 -46t-15.5 -43q-14 -26 -35.5 -61.5t-48.5 -68t-58.5 -55t-65.5 -22.5h-21q-3 11 -9 16.5t-12.5 10.5t-11 12.5t-4.5 22.5zM261 490l4 4v205q-4 0 -11 3t-12 3 l-6 4l-8 -4h-90q-6 0 -12 14t-6 23q0 14 6 14v6q0 18 16.5 49t39.5 61.5t47 54t40 26.5v125q8 2 15.5 17.5t14.5 34t14 36.5t13 24q18 23 40 51.5t44 42.5l23 5q4 4 12 11t13 11h59q0 -6 5 -15.5t5 -17.5q0 -7 -3.5 -19.5t-8.5 -25.5t-10.5 -24.5t-10.5 -18.5v-205 q4 -9 4 -14l-4 -14v-14t2 -16.5t6 -15.5t11 -10v-75l4 -11v-120q-2 -6 -11 -30t-18.5 -51.5t-17.5 -50.5t-8 -28q-12 -2 -29 -16t-34 -32t-33 -36t-25 -27h-53l-27 27v39zM892 920q17 0 34.5 -5t34.5 -11.5t34.5 -11.5t35.5 -5q24 0 45 11t38.5 26.5t31.5 32t26 28.5v84 q6 8 6 17q0 4 -1 9t-1 7q0 4 1 8t1 9q0 15 -6 16v65q-1 0 -6 5l-4 4l6 10q-7 12 -19.5 28.5t-25.5 34.5t-24 35.5t-15 32.5l-80 80q-11 3 -24.5 9t-26.5 13.5t-24.5 16t-18.5 16.5h-65q-9 0 -14.5 -12t-10 -27t-8 -29.5t-8.5 -19.5v-178l8 -10v-131q4 -4 4 -15l-4 -12l4 -10 v-19q0 -14 -2 -23t-2 -24q0 -7 0.5 -19t2.5 -24t7 -22.5t14 -14.5q15 11 27 18t29 7zM27 1415q10 6 20 22.5t19.5 36t18 37t16.5 25.5q39 39 77 62t87 47l4 4h135q16 -10 42 -10h12q25 0 40 -15h84q10 11 22.5 13t20.5 12h60q4 -10 12 -18.5t8 -18.5t-8 -19.5t-12 -19.5 l-51 -55q-2 -9 -17 -26t-34 -34t-37.5 -32t-28.5 -21q-14 -9 -32 -8.5t-34 -9.5h-116l-4 4l-15 -4q-5 0 -20.5 2.5t-20.5 11.5h-86q-15 0 -27 -11t-23 -23.5t-23.5 -23.5t-28.5 -11q-13 0 -21 4t-14 10t-11.5 12t-13.5 10v47z" />
<glyph unicode="Q" horiz-adv-x="1376" d="M925 -37q-13 7 -30.5 16.5t-34 18t-28 14.5l-11.5 6h-5q-8 0 -20.5 -5t-24.5 -12t-22.5 -14.5t-15.5 -13.5h-43q-4 4 -13 4h-6q-10 0 -16 2t-6 12h-43q-7 12 -22 19.5t-32.5 13t-35.5 10.5t-31 12t-24 18t-21.5 22.5t-21 22.5t-21.5 17q-58 35 -101 82t-76.5 101.5 t-60.5 115t-53 121.5l-4 6v41q-8 3 -11.5 9t-5.5 13t-4 13t-8 8v271l10 4v53l8 4v51l11 4v43q3 0 5.5 4.5t5.5 10t6.5 11t8.5 7.5v41q13 29 27 60.5t26 59t20.5 47t10.5 22.5q11 14 29.5 38.5t38.5 50t40 47.5t34 31q6 5 22.5 14.5t35 20.5t34.5 21.5t20 17.5h51 q12 0 18 -4.5t8.5 -11t2.5 -14.5v-15v-20q-18 -7 -39 -38q-11 -17 -23.5 -28.5t-23.5 -20t-18.5 -16t-7.5 -18.5l-52 -51q0 -12 -6.5 -27t-15 -30t-17 -28.5t-12.5 -23.5l-6 -4v-41q-7 -2 -10 -8t-4.5 -13t-4 -13t-8.5 -9v-106l-10 -7v-36l4 -5q-4 0 -4 -6v-16q0 -6 4 -6 q-4 0 -4 -11q0 -8 10 -8v-69q1 0 4.5 -11.5t8 -29.5t10.5 -39.5t11.5 -41.5t11.5 -35.5t10 -21.5q3 -8 12 -19t18.5 -23t17 -23t7.5 -18h14q10 0 14 9t6.5 20t5.5 21.5t11 14.5v262l-4 4q4 0 4 23q0 6 -4 6v162q-5 0 -7 3t-3 6.5t-2 7.5t-6 7v66q8 4 16 17t15 29t13.5 31.5 t10.5 24.5q8 12 19 22t22 19t21.5 18.5t17.5 20.5q4 6 21.5 29.5t42 55t53.5 67t57 67t51.5 53.5t36.5 27l4 4h43q4 -6 12.5 -7t16.5 -11q10 -17 16 -36t16 -34q17 -15 41 -32.5t49.5 -37t50 -38.5t42.5 -37q28 -27 47.5 -59.5t36.5 -67.5t33 -70t36 -65v-84l11 -9v-65 l4 -10l-4 -8l4 -11v-76l-4 -8l4 -10l-4 -8v-66l-11 -10v-65q-1 0 -5 -13.5t-9 -34.5t-11 -45.5t-11.5 -46.5t-9.5 -37.5t-5 -19.5l-4 -8q0 -4 -3 -14.5t-3 -14.5l-37 -74q-5 -2 -17.5 -18.5t-28 -40.5t-34 -52t-36 -54.5t-32 -47.5t-24.5 -30v-15q27 -4 54 -15t54 -23 t55.5 -21.5t59.5 -9.5q22 0 37.5 9t29 20.5t27.5 20.5t33 9q17 0 25 -13.5t8 -27.5v-18q-13 -6 -27 -28t-27 -48.5t-23.5 -52t-16.5 -39.5q-8 -8 -19.5 -14.5l-23 -13t-21.5 -15.5t-16 -23q-4 0 -8 1t-8 1q-23 0 -41.5 -6t-40.5 -6h-27q-8 19 -31.5 24.5t-50.5 8.5t-51.5 9 t-34.5 24zM741 294q0 -5 7 -8.5t16 -5.5t18 -3t12 -1q31 0 55 13t44.5 32t39 41.5t37.5 40.5q6 4 15 18.5t18 30t15.5 27.5t8.5 12v43q3 0 5 3.5t3.5 7.5t3.5 7.5t7 3.5v41l8 7v135l10 4v51q4 0 4 10q0 8 -4 8v54l-10 4v61q-8 0 -11 7.5t-4 16.5t-3 17t-9 10v41q-4 0 -8 4 l-2 3q-4 10 -18.5 39t-36 67t-48 79t-54 75t-55 56.5t-50.5 22.5q-13 0 -21 -5.5t-15 -14t-13.5 -18t-15.5 -17.5v-272l10 -4v-164l4 -4q-4 0 -4 -10q0 -9 4 -9v-39l-4 -4q-9 -26 -17 -46t-17 -38t-20 -37t-26 -43q-6 -9 -30.5 -32t-52 -47.5t-49.5 -44.5t-22 -25t3 -8 t6.5 -6t6.5 -7t3 -12l102 -102q5 -2 23.5 -11t38.5 -20t35.5 -21t15.5 -14h41v0z" />
<glyph unicode="R" horiz-adv-x="1582" d="M56 -121q0 149 62 235q64 86 192 140l2 2q2 2 2 6l201 4q4 -4 12 -4q13 0 15 2t10 2l150 -4l6 -6q2 -2 4 -2h28l23 4q14 0 23.5 -2t23.5 -2q21 0 40 5t38 11.5t38 11.5t38 5h28q3 -9 7.5 -14.5t9.5 -10t8.5 -9.5t3.5 -14q0 -19 -13 -35t-29 -32t-29 -34t-13 -40l-57 -55 q-8 -2 -19.5 -8.5t-23.5 -14.5t-23 -17.5t-18 -17.5h-211l-4 11h-62l-4 10l-270 4q-16 -12 -33.5 -39t-33 -54.5t-28 -49t-18.5 -21.5h-61q0 10 -7.5 16.5t-7.5 16.5zM1119 477q-12 31 -14 64.5t-10 62t-31 47t-76 18.5h-108q-5 5 -15 5q-4 0 -14 -23.5t-25.5 -58 t-36.5 -75.5t-47.5 -75.5t-58.5 -58t-70 -23.5h-18q-4 11 -10.5 16t-12.5 10.5t-10 13t-4 22.5q0 6 4 16t9.5 20t12 18.5t11.5 10.5l4 262q-4 0 -4 9q0 10 4 10l-4 153q6 0 6 11q0 8 -1 12.5t-2 7.5t-2 6.5t-1 9.5q0 15 8 15v321q8 0 10.5 9.5t3.5 21.5t3.5 21.5t11.5 9.5 v43q7 0 22.5 20t35 50t43 65t48 65.5t48 51.5t43.5 22l65 62q11 5 19 11.5t16 12t17.5 9.5t21.5 4q27 0 46.5 -14.5t36.5 -34t35 -39t42 -29.5q81 -33 141.5 -97.5t99.5 -140.5q6 -10 10.5 -25.5t8.5 -32t9 -31t11 -23.5v-103l-6 -10v-66q-14 -10 -22.5 -30.5t-14.5 -44 t-11 -46t-11 -36.5q-11 -25 -34.5 -49.5t-47.5 -46t-44 -39t-24 -29.5q65 -27 100.5 -56t52.5 -62.5t20 -73.5t3 -89v-196q4 -21 8 -39t12.5 -31.5t22.5 -21t37 -7.5h18l72 27q20 0 31 -8t16.5 -20.5t6.5 -28t1 -31.5q0 -37 -21.5 -71t-54 -59.5t-70 -40.5t-69.5 -15 q-51 0 -103 10t-95 34t-71 63t-30 97v84q0 4 -2 9.5t-2 9.5v178zM286 502l4 208q-4 0 -11.5 3.5t-11.5 3.5l-4 4l-98 -4q-8 0 -12 15.5t-6 31.5v-2q0 6 4 6v6q0 12 7.5 30t20 38.5t28 41.5t32 38.5t31.5 29t26 12.5v125q16 7 29.5 33.5t29 59t34.5 64.5t46 50l25 4l22 23h62 q0 -6 4 -15.5t4 -17.5q0 -7 -3.5 -19.5t-8.5 -25.5t-10.5 -25t-10.5 -18v-205q6 -6 6 -14l-6 -15v-13t2 -16.5t6 -15.5t11 -10v-76l6 -10v-121q-4 -6 -13.5 -29.5t-19.5 -51t-17.5 -50.5t-7.5 -28q-12 -2 -28.5 -16t-33.5 -32t-33 -36t-25 -27h-52l-28 27v39zM917 932 q17 0 34 -5t34.5 -11.5t35.5 -11.5t37 -5h29q14 4 22 13t23 13l53 54q4 4 5 6t3 4l4 92q8 6 8 19q0 4 -1 8t-1 6t1 6t1 8q0 13 -8 19v65q-8 0 -8 8l4 11q-8 10 -21 27t-25.5 36t-23 37.5t-14.5 30.5l-80 80q-11 3 -24 8.5t-25.5 13t-24 16t-18.5 17.5h-65q-10 0 -16 -12 t-10.5 -27.5t-8.5 -30t-9 -18.5v-178l11 -11v-131q4 -4 4 -14l-4 -12l4 -29q0 -14 -2 -23.5t-2 -23.5q0 -7 0.5 -19t2.5 -24t6.5 -22.5t12.5 -14.5q15 10 27 17.5t29 7.5zM52 1427q11 6 21 22.5t19.5 35.5t18 36.5t17.5 26.5q20 20 38.5 34.5t38 27t40.5 24t45 23.5l141 4 q8 -6 20.5 -7.5t26 -2.5t26.5 -4t21 -11h84q3 5 9 7.5t12 4.5t11.5 4.5t8.5 8.5h62q4 -11 11 -19t7 -18t-7 -19.5t-11 -19.5l-51 -55q-8 -33 -36 -56.5t-59.5 -39t-57.5 -24t-30 -11.5h-135q-2 0 -8 0.5t-13.5 2t-13.5 4.5t-8 7h-84q-16 0 -28.5 -11t-23.5 -24t-22.5 -24 t-27.5 -11q-13 0 -21.5 4.5t-15 10.5t-12 12t-13.5 10v47z" />
<glyph unicode="S" horiz-adv-x="1338" d="M-144 -25q0 37 17.5 66.5t43.5 55t55 47t52 42.5q19 2 41 11t44.5 21t44 24t38.5 20h210q2 -8 13 -10.5t24 -3.5t23 -3t10 -8h43q0 -10 9.5 -13t21.5 -3h14q25 0 25 -12h61l4 -9h51l7 -10h139q18 12 42.5 16t41.5 13q34 17 54 41t34.5 51.5t26.5 58t30 60.5v139 q-17 24 -28.5 48t-23.5 47t-26.5 45t-37.5 42q-34 30 -71.5 53.5t-76.5 44t-79.5 38t-81.5 35.5q-40 18 -80 36.5t-78.5 39.5t-74 46t-67.5 57q-22 23 -31.5 47.5t-23.5 47.5v75q16 29 27.5 55.5t27.5 55.5q4 8 10.5 13.5t13 10.5t13 10.5t10.5 12.5l62 66q4 16 19.5 38 t37 46t47 49t49.5 47.5t44 42t30 31.5h53v-4q0 -8 8.5 -17.5t19.5 -19.5t20.5 -20t11.5 -19l84 -84q3 0 14 -4t22 -9.5l20 -10t9 -5.5h66q4 2 16.5 10t26.5 17t26 16.5t15 7.5h61q18 0 23 -6t5.5 -13.5t0.5 -15.5t8 -12v-37q-6 -2 -15 -18.5t-20.5 -36t-24.5 -35.5t-28 -18 l-80 -78q-12 0 -18 -5t-12 -11.5t-14.5 -11.5t-24.5 -5l-5 -6h-98l-10 6q-28 4 -58.5 16.5t-60 31t-56 41t-44.5 46.5l-6 4h-45q-9 0 -15.5 -6.5t-10.5 -15.5t-5.5 -19t-1.5 -18v-10q-6 0 -6 -10q0 -9 10 -9v-51q6 0 30.5 -14.5t54.5 -33.5t57.5 -36.5t39.5 -23.5l4 -4h43 q0 -1 23 -13t58.5 -30.5t78 -41t82 -45t70.5 -41.5t43 -30q2 -2 9 -7.5t14.5 -12.5t13.5 -13.5t6 -9.5l51 -51q0 -7 8 -28.5t18.5 -46t20.5 -47t14 -32.5l4 -6q-4 0 -4 -8q0 -13 12 -19q-4 0 -4 -8v-20q0 -11 4 -11v-55l-4 -4v-70l-8 -6v-41l-10 -6v-51q-3 0 -14.5 -24.5 t-27 -55.5t-32 -58.5t-28.5 -33.5q-5 -2 -15 -12t-20.5 -21.5t-18.5 -22t-8 -14.5l-65 -65q-5 0 -23.5 -10t-43.5 -26t-55 -34.5t-59 -35t-54 -28t-42 -12.5v-4q0 -11 -8 -14.5t-17.5 -4.5t-17.5 -2t-8 -7h-41l-4 -11h-21q-14 0 -22 3t-19 3q-10 0 -13 -3t-11 -3 q-10 0 -18.5 3t-18.5 3t-14 -3t-15 -3q-7 0 -12 11h-66l-10 8h-84q-5 5 -13.5 7t-18 4t-18.5 5.5t-15 11.5h-66l-8 4h-123q-7 -5 -15.5 -6.5t-17 -2.5t-17 -2.5t-15.5 -6.5q-12 -6 -24.5 -18t-26 -23.5t-27.5 -20t-29 -8.5h-14q-19 15 -33 30t-14 40zM828 368q0 8 2.5 12.5 t2.5 10.5q0 31 -31.5 61t-82.5 58.5t-116 56t-133 54.5q-69 29 -134 61t-115.5 69.5t-81.5 80.5t-31 93l6 8q-11 9 -13 14t-2 15q0 17 10 46.5t26 59t36 51t41 21.5q10 0 14.5 -5t6.5 -12.5t4 -15.5t6 -14l90 -88q17 -4 32.5 -13.5t29.5 -20t28.5 -19.5t30.5 -12 q18 -7 58 -25t90 -43t105 -53t102.5 -56t82 -52t43.5 -40q4 -4 15.5 -24.5t24.5 -43.5t23.5 -42t12.5 -19q-4 0 -4 -6q0 -14 6 -24.5t6 -22.5q0 -7 -7 -23.5t-18 -37.5t-25 -44t-27.5 -42t-25 -31t-18.5 -12h-41q-7 0 -12.5 9.5t-9 21.5t-5.5 23t-2 15z" />
<glyph unicode="T" horiz-adv-x="1256" d="M652 -39q-22 8 -45 16t-42.5 14.5t-33 10.5t-18.5 4q-70 47 -112 77t-68 52.5t-40.5 42t-29 45.5t-34 63.5t-54.5 94.5v43q-7 3 -10 8.5t-5 12t-4 12.5t-8 8v43l-10 4v61l-8 5v102q4 4 4 14v6q0 23 14 23v106q1 0 5 12.5t9.5 31t11.5 40t12 41.5l10.5 35t7.5 19 q57 112 146.5 196t213.5 127l4 4h19q6 0 16.5 -5t20.5 -12.5t17 -16.5t7 -17q0 -22 -20 -39.5t-46.5 -32.5t-51.5 -29.5t-35 -29.5q-25 -39 -45.5 -82t-45.5 -82l-4 -4v-72l-10 -4v-61q-10 0 -10 -8q0 -10 1 -14.5t2 -7t2 -5.5t1 -10q0 -15 -4 -15v-38l4 -5q-4 0 -4 -8 q0 -10 8 -10v-51l10 -4v-62q5 -2 14 -20.5t17.5 -41t15.5 -43t9 -26.5q8 -10 18 -16t10 -21l51 -51q2 -16 28 -37.5t64 -44t82.5 -44t84.5 -38.5h106q0 -10 14 -10q11 0 11 10h59q0 6 10 17t26 25t35 28.5t37 27t32 20t20 7.5q7 0 16.5 -5t18 -12.5t14.5 -16.5t6 -17 q0 -6 -4 -15.5t-4 -17.5l-47 -92q-13 -6 -33.5 -27.5t-43 -47t-44.5 -50t-39 -35.5q-4 -5 -19 -10.5t-35 -12t-42.5 -14.5t-42.5 -18h-51l-7 -10h-51l-4 4q-8 0 -10 -2t-8 -2q-11 0 -11 10h-51zM531 442q0 6 1.5 17.5t4.5 23.5t8.5 21.5t14.5 11.5v43l8 4v295q4 0 4 8 t-2 10.5t-2 10.5q0 6 2 8t2 10q0 4 -2 7t-2 8q0 8 10 8v98l21 45q16 35 41.5 57t53.5 40.5t55 37t45 45.5q0 9 8 9h71q0 -27 27 -27v-39q-6 -2 -12.5 -9.5t-13 -16.5l-13 -18t-12.5 -15v-127l-8 -4v-99l-11 -6v-78l-10 -6v-121l6 -4l-6 -6v-59q-1 0 -5.5 -12t-9.5 -27 t-10 -28.5t-8 -16.5q-9 -13 -23.5 -29t-31 -31.5t-34 -29.5t-31.5 -23q-8 -5 -16 -6.5t-15 -3t-13.5 -5.5t-11.5 -14h-61q-6 0 -9.5 5.5t-5.5 13t-3 14.5t-1 10zM54 1401l4 4v12q0 27 14.5 51.5t36.5 47t48 41.5t48 33.5t37.5 25t16.5 14.5h43q0 8 16 8h13q10 0 14 4h96 l6 -4h41l7 -8h98q0 -11 13 -11h7q13 0 13 -7h51l4 -10h127l4 -11h61l5 -8h51l4 -10h108l9 -8h94l4 8h43l4 6h51q10 -8 18.5 -11.5t15 -7.5t10 -11t3.5 -23q0 -10 -11 -27.5t-28 -38.5t-38 -43t-42 -41t-38.5 -33t-28.5 -18q-23 -9 -47.5 -10.5t-46.5 -16.5h-52l-4 9h-79 q0 4 -6.5 7t-14 4.5t-14.5 2t-9 0.5l-8 -4l-8 2q-2 2 -2 6h-106q0 8 -7.5 10t-17.5 2h-16q-13 0 -22 3t-9 14h-70l-4 4q-8 0 -10 -2t-8 -2q-11 0 -11 8h-40q0 8 -15 8h-10q-18 0 -18 12h-80l-4 9h-43l-5 4h-69q-1 -3 -10.5 -11t-22.5 -18.5t-28.5 -22t-29 -22.5t-23.5 -20 t-13 -13h-33q-3 9 -7 12t-8.5 5t-9 7.5t-8.5 18.5l-4 4v66z" />
<glyph unicode="U" horiz-adv-x="1605" d="M1145 161q-11 0 -19 -3.5t-18 -7.5l-94 -88q-21 -6 -34.5 -20t-27.5 -28t-31.5 -25t-46.5 -11h-28q-4 3 -11.5 5t-14.5 3t-13 1h-9q-12 3 -23.5 10t-23 15t-23.5 15.5t-24 12.5q-55 22 -113.5 36.5t-115.5 32.5l-2 2q-2 4 -2 7h-41q0 6 -10 6q-24 0 -42 -8.5t-33.5 -21.5 t-29.5 -28.5t-28.5 -28.5t-31 -21.5t-36.5 -8.5h-25q-2 1 -6.5 7.5t-9 13.5t-7.5 14t-3 10q0 23 10 44.5t22.5 41t22.5 36t10 28.5l74 75q10 2 20.5 9.5t19.5 16t16 15t10 6.5q8 0 12 -3t12 -3q3 0 11 2.5t16 6.5t15 8.5t9 7.5h191q7 -5 27.5 -12.5t49 -16.5t61 -18.5 t62.5 -18.5t54.5 -17.5t36.5 -14.5q3 -2 10 -7l8 -4h55q11 0 27.5 11t32.5 26t29.5 30t19.5 23q0 3 0.5 10t1.5 15t1.5 15t0.5 8l4 4q4 4 6 4v76l8 8v94l7 10l-7 8v197l-6 6q-2 2 -2 4q0 8 8 8v263l7 10l-7 8v141q0 19 -20.5 36.5t-45 32.5t-45 28.5t-20.5 23.5v84 q0 11 13.5 27t34.5 33.5t46 35.5t49 32t43.5 23t28.5 9h21q17 -16 33 -35t32.5 -38t34.5 -35.5t39 -28.5q12 -4 27 -7t27.5 -8.5t21 -16t8.5 -28.5q0 -24 -13.5 -41.5t-30 -34t-30.5 -36t-14 -47.5l4 -9v-243l-4 -11v-73q4 -12 4 -15q0 -10 -4 -14v-66l8 -8v-403 q8 -7 17.5 -26t20.5 -43.5t23.5 -50.5t27 -48t31.5 -36.5t36 -14.5h74q4 0 14 -10.5t14 -14.5v-22q0 -18 -17.5 -42t-41.5 -47t-49.5 -41t-40.5 -24q-11 -5 -25.5 -7.5l-29 -5t-27.5 -6t-21 -10.5h-57q-16 0 -32.5 17t-33 42.5t-32 55.5t-31 55.5t-29.5 42.5t-28 17z M579 445q6 3 8.5 9t4.5 13t5 13t9 8v70l6 4v207l-6 4v420q7 4 17 27.5t24 57t32 71.5t39.5 70t47.5 53.5t55 21.5q12 0 20 -3.5t14.5 -8t12.5 -9.5t14 -8v-76q-9 0 -11.5 -4.5t-2.5 -12.5v-12q0 -7 -1.5 -14t-6.5 -12v-328q-10 0 -10 -8l4 -10v-336q-10 -14 -22 -39 t-25.5 -55.5t-29.5 -62t-34.5 -57t-39 -42t-44.5 -16.5h-61q0 10 -6.5 17t-12.5 11v37zM321 470v186q-4 0 -16 2t-16 2l-3 2q-2 2 -2 9h-69q0 9 -11 9h-7q-11 0 -11 9v74l47 43v14l37 37q12 0 21 6t16 14.5t10.5 19t3.5 19.5q0 6 -4 6v37l8 7v77q5 0 10 12t9 27t7 28.5 t3 16.5q14 13 29.5 28t29.5 28.5t24.5 23t14.5 10.5l23 23h43q2 -3 6.5 -6.5t9.5 -7t9 -7t4 -6.5v-65l-7 -10l7 -11l-7 -8v-55l11 -10v-197l4 -10l-4 -8v-15q0 -10 2 -16t2 -17q0 -6 -2 -11t-2 -11q0 -10 4 -14v-58l-4 -8v-84q0 -11 -11 -27.5t-25.5 -33.5t-28.5 -31.5 t-19 -20.5q-2 -10 -13.5 -23t-27 -24.5t-31.5 -19.5t-27 -8q-14 0 -21 6.5t-11 14.5t-7.5 15.5t-11.5 10.5zM55 1324q5 2 8.5 10t5.5 17.5t3 18t1 11.5q6 0 12.5 5.5t12 13.5t9 16t3.5 12l58 56q2 0 15.5 9.5t30 21t30.5 22t16 12.5h164q19 -11 43 -11h12q23 0 39 -11h113 l14 12h18q12 0 18 -1.5t11 -3.5t9.5 -5.5t13.5 -7.5v-19q0 -23 -19 -52.5t-45.5 -58t-55 -52t-48.5 -34.5q-15 -6 -33.5 -7t-32.5 -11h-61l-4 4l-11 -4h-32l-5 4h-112q-5 -5 -13 -7t-17.5 -3t-18.5 -2.5t-17 -5.5q-12 -6 -18 -15t-13 -17t-18 -13.5t-31 -5.5h-26 q-11 8 -15 23t-14 24v55z" />
<glyph unicode="V" horiz-adv-x="1574" d="M840 -22q-7 0 -27.5 12t-47.5 28t-57 31t-55 21q-8 2 -21 2.5t-27 1.5t-26.5 4.5t-19.5 11.5h-74q-2 -3 -8.5 -6.5t-14 -6.5t-14.5 -5t-10 -2l-80 -78q-14 -4 -25.5 -11t-25.5 -7q-22 0 -39.5 17.5t-17.5 41.5q0 25 17.5 59.5t42 68t52 61.5t48.5 41q54 30 113.5 52.5 t125.5 22.5l4 -6h60l6 -8h59q2 -7 9 -10.5t14.5 -5.5t13.5 -4.5t6 -8.5h43l12.5 -7t31.5 -18.5t42 -25t44.5 -25t38.5 -19t24 -7.5q29 0 38.5 12t16.5 29q3 8 10 13.5t15 9.5t15 8.5t11 11.5q41 72 76 138.5t59 146.5l2 2q2 2 7 2v53l10 4v41l10 6v41l4 6v242q-4 2 -8 22.5 t-10 44.5t-14 45t-19 23v43q-5 0 -15 11.5t-23.5 29.5t-29.5 38.5t-33.5 38.5t-34.5 30t-32 12h-10q-4 -4 -17.5 -13.5t-27 -20.5t-24.5 -21.5t-11 -16.5h-80q-6 0 -10.5 8t-8.5 18t-6 19t-2 12q0 17 20 47.5t51 67t68.5 74.5t73.5 69t65.5 50.5t43.5 19.5q17 0 30 -8.5 t24 -21t21.5 -26t22.5 -24.5q37 -28 61 -52t41 -47t28 -45t23 -47t26 -54t36 -64l2 -2q2 -2 8 -2v-43q9 0 9 -12v-13q0 -16 10 -16v-43l4 -4v-225l-4 -5v-51q-5 0 -7 -3.5t-3.5 -7.5t-3.5 -7.5t-5 -3.5v-80q-18 -7 -18 -19q0 -4 2 -7t2 -7t-0.5 -10.5t-2 -13t-4.5 -11 t-7 -4.5v-51q-1 0 -10 -19.5t-20 -44t-20.5 -47t-11.5 -28.5q-5 -9 -23 -35t-42.5 -60t-51.5 -71.5t-50 -69t-39 -52.5t-17 -22l-84 -84q-8 -2 -29.5 -22t-49 -45t-57.5 -47.5t-56 -30.5l-4 -4h-43l-84 80v0zM551 379q0 19 4 31t18 31v411q-4 4 -4 15q0 10 8 12v367 q5 4 7 10t4 8q15 22 28 50.5t27 58.5t30.5 59t37.5 51.5t48 36.5t62 14q7 0 16 -2.5t16.5 -7.5t13 -11.5t5.5 -15.5q0 -8 -3.5 -21.5t-9.5 -27t-13 -25t-15 -16.5v-51l-10 -4v-47l4 -4q-4 0 -4 -6q0 -11 0.5 -14.5t1.5 -4.5t1.5 -2.5t0.5 -9.5t-2 -10t-2 -8q0 -11 4 -11 v-598q-6 -1 -6 -10q0 -4 1 -10t1 -10q0 -13 -10 -13v-41l-8 -6v-41q0 -1 -9.5 -9t-21.5 -18t-21.5 -20.5t-9.5 -17.5l-55 -58q-6 0 -35 -18l-31 -19h-18q-23 0 -37 5.5t-14 27.5zM289 506q0 13 8 19v102q6 5 6 18v11l-6 8l6 10v23v13t-1.5 15.5t-6 13t-12.5 5.5h-5 q-3 -4 -10.5 -8.5t-15.5 -9t-15.5 -8.5t-9.5 -7h-43q-7 0 -12 7.5t-8 17.5t-4.5 19t-1.5 13q0 32 21.5 67.5t48 65.5t48 50t21.5 22v103q10 10 15 30.5t14 34.5q22 33 47.5 56.5t54.5 48.5h70q9 0 14 -9.5t7 -20.5t2.5 -21t0.5 -11l4 -4l-4 -6v-332q-10 0 -10 -10 q0 -9 1 -13.5t2 -7.5t2 -6.5t1 -9.5q0 -10 -3 -13t-3 -14v-8q0 -10 6 -10q-6 0 -6 -14q0 -15 6 -15l-6 -4v-43l-8 -4v-61q-6 0 -13.5 -11.5t-14.5 -26t-13.5 -28t-9.5 -18.5q-9 -6 -23.5 -13t-29 -14.5t-26.5 -15t-16 -13.5h-14q-8 0 -17.5 1.5t-18 6t-14 11.5t-5.5 18z M45 1356q22 23 38 45t32 42t34.5 38.5t44.5 34.5q13 8 27.5 11.5t29.5 6.5t29.5 6.5t26.5 12.5h98l5 -4h43q0 -9 5.5 -11t12.5 -2t13.5 -0.5t8.5 -5.5h76q3 0 8.5 3t11 6.5t10.5 7.5t7 6h51l19 -19v-47q0 -6 -11.5 -14t-25.5 -17t-25.5 -19t-11.5 -19v-5l-76 -75 q-3 0 -13.5 -3.5t-22 -8.5t-20.5 -10t-9 -7h-51l-5 -8h-61l-8 4h-142q-6 -7 -17.5 -18.5t-25.5 -23t-28.5 -20t-26.5 -8.5h-14q-1 2 -7 7.5t-13 12.5t-12 14.5t-5 12.5v74v0z" />
<glyph unicode="W" horiz-adv-x="1968" d="M533 87q0 6 -11.5 8t-25.5 3t-26.5 3t-14.5 8h-182l-14.5 -10t-34 -23t-37 -26t-23.5 -18h-41q-1 1 -6.5 5.5t-12 9t-12.5 8t-8 3.5v47q5 2 12.5 14.5t15.5 27t13.5 27t5.5 15.5l95 94q4 0 21 8.5t37.5 19t40 20.5t26.5 12l4 4q2 2 2 6h59l6 4h144q5 -4 22 -8.5t41 -10.5 t51.5 -13t54 -14t49 -15t35.5 -17q11 -5 17 -8.5t11 -6t10 -4t14 -1.5h14q14 10 31.5 27.5t33.5 37.5t26.5 41.5t10.5 38.5q0 10 -4 10q4 0 4 15q0 6 -2 8t-2 10t4 8v310l-4 4l4 6v65l-4 5v317l4 4v57l-4 5v79l-61 56q-4 0 -12.5 3t-17 7.5t-15 10t-6.5 11.5v62h14q0 9 5 19 t11.5 20.5t11.5 20t5 16.5v4l84 84q3 0 10 3t15 7.5t14.5 9t7.5 6.5h22q22 0 37.5 -11.5t28 -29t23.5 -38.5t23.5 -39.5t28.5 -32t38 -17.5v-84l-7 -8v-112q-8 -2 -8 -25q0 -6 2 -13t2 -14q0 -10 -4 -14v-244l4 -8l-4 -10v-35q0 -8 4 -12v-121l-4 -10q0 -8 8 -8v-310 q2 -3 11.5 -15.5t23 -30.5t29 -38t29 -38t22 -30.5t8.5 -15.5l52 -51h10q8 0 12 0.5t7 1.5t7 2.5t11 3.5l69 72q4 11 9.5 19l11 16t9 17.5t3.5 21.5q12 4 20 19.5t13.5 37t9 46.5t8 47.5t10.5 40t15 24.5v65l4 11v307q-16 23 -21 63q-5 49 -13.5 90t-22.5 77t-35.5 68 t-53.5 62q-7 0 -11 3t-7 6.5t-6 6.5t-8 3q-11 0 -23 -15h-71q-3 0 -7.5 5.5t-8 12.5t-6.5 13.5t-5 7.5v37q6 6 15 23.5t20.5 37t24 37t24.5 23.5q6 4 13 4t7 8q0 4 -2 6l56 58q14 4 25 15t26 11h65q20 -14 41.5 -30t44.5 -33q62 -46 93.5 -107t46.5 -127q3 -14 10 -43.5 t14.5 -59.5t14.5 -52.5t12 -22.5v-76l4 -8v-217l-4 -8v-84q-1 -1 -8.5 -34.5t-20.5 -85t-31.5 -113.5t-42.5 -120.5t-53 -105.5t-63 -69q-14 -10 -34 -39q-20 -31 -57 -61.5t-77.5 -60.5t-79 -59t-62.5 -57q-14 0 -24.5 -1.5t-20 -3t-18.5 -2.5t-21 -1h-22l-6 4 q-14 2 -32.5 13.5t-35.5 28t-29 35.5t-14 36l-43 41q0 4 -5 12t-13.5 17.5t-18 20t-18.5 19.5q-4 0 -23 -15.5t-45 -39.5t-56.5 -52.5t-57.5 -55t-48 -47t-28 -27.5h-51q-4 9 -12.5 11.5t-17.5 5t-15.5 7.5t-6.5 19q0 19 -16 29t-36 17.5t-38 16t-22 25.5h-43zM514 498l11 5 v331l4 6v84q-4 0 -4 7q0 20 4 20v123l-4 4v139q2 2 7 17.5t11 35t11 37t7 23.5q11 14 23 35.5t25 43t26.5 41t28.5 29.5q10 9 25.5 14t21.5 15h70l10 -10v-19q0 -17 -5 -34t-11.5 -33.5t-11.5 -33t-5 -34.5q0 -14 2 -22t2 -19q0 -8 -2 -15t-2 -13q0 -15 10 -19v-104l4 -8 v-449q-16 -18 -18.5 -48t-6 -60t-15 -54t-44.5 -30l-57 -52q-20 -6 -27 -28h-79q0 4 -2.5 12t-2.5 12l-6 4v47zM244 466q0 8 8 8v61l10 4v99l5 6v102l-9 8h-71q-13 -12 -27 -12q-2 0 -11.5 3t-19.5 7t-18 8.5t-8 8.5v65q15 11 26.5 30.5t23 38.5t25.5 33.5t33 14.5l41 39v59 q8 0 8 15v10q0 18 13 18v60q4 3 19 26.5t38 51.5t52 50.5t62 22.5q10 0 19.5 -6.5t9.5 -21.5t-6 -15v-641q-8 0 -8 -20q0 -6 4 -6q-9 -2 -16.5 -13t-13.5 -24.5t-10.5 -27t-6.5 -21.5l-65 -66q-5 0 -12 -2t-11 -2l-4 -4h-51l-29 29v4v0zM47 1395q6 3 15.5 16.5t18.5 29.5 t15.5 30.5t6.5 18.5l75 73q4 0 21.5 10.5t39.5 24t43 26.5t32 19l4 4h33l6 -4h41q0 -7 5.5 -8.5t13.5 -1.5h8q16 0 16 -8h41q0 -8 6 -10t14 -2t15 -0.5t8 -6.5h51q2 5 8 7.5t13.5 4.5t14.5 2.5t11 0.5q10 0 18.5 -7.5t18.5 -11.5v-94q0 -11 -11 -26t-28 -30.5t-38.5 -31 t-41.5 -29t-37.5 -23t-26.5 -13.5l-4 -7h-116q-2 7 -9.5 9.5t-16.5 4t-16.5 4.5t-9.5 11h-43l-4 4h-43q-2 -8 -16.5 -21.5t-33.5 -26t-37.5 -21.5t-28.5 -9q-13 0 -20 4t-11.5 10t-8.5 12.5t-12 10.5v55z" />
<glyph unicode="X" horiz-adv-x="1283" d="M-49 -7q0 31 23.5 74t58 85t74 75t70.5 43q8 3 20.5 6t26.5 6.5t26.5 8t18.5 8.5h65q5 -6 21.5 -10.5t35.5 -8t36.5 -5t23.5 -1.5h25q4 5 15.5 20.5t25 37t28.5 45.5t27.5 45.5t20.5 37.5t8 21q0 16 -9.5 43.5t-21.5 58t-24.5 59.5t-18.5 48l-4 6h-236 q-10 -8 -25.5 -11.5t-25.5 -3.5h-14q-19 11 -23 18t-4 19q0 24 9.5 48.5t23.5 46.5t30 41t29 32q12 13 31 19t39 11t38.5 12.5t28.5 23.5q-8 13 -17 34.5t-18 52.5q-24 83 -41 138t-29.5 89t-22 50.5t-19 23t-20 6t-25.5 -0.5l-10 4q-9 0 -23 -11t-30.5 -23.5t-33 -23.5 t-30.5 -11q-2 0 -9 3t-14 7t-12.5 9t-5.5 9v103q5 6 13 18.5t15.5 26.5t13 27.5t5.5 21.5q20 23 40 38.5t40.5 28t42 25t45.5 29.5h55l11 -4q39 -8 79.5 -23.5t69.5 -48.5q9 -10 16 -25.5t21 -19.5q0 -5 5.5 -24t14 -44.5t19.5 -54t21.5 -53t19.5 -42.5t14 -22h4q1 -1 15 22 t35.5 58t47 77t49 80t42.5 67t26 38l4 8h80q5 -6 25 -20.5t44.5 -29.5t47.5 -26.5t33 -11.5q28 0 48.5 11t39.5 24t39 24t47 11h14q2 -3 6.5 -4.5l9 -3t8 -3.5t3.5 -7v-84q-10 -7 -17 -18t-12.5 -22.5t-11.5 -23t-15 -20.5q-24 -24 -45.5 -48t-44.5 -47t-47.5 -43t-54.5 -37 l-4 -4h-80q-6 4 -24.5 14t-40 20.5t-40.5 19t-26 8.5h-8q-19 -11 -31 -42t-23.5 -66.5t-24.5 -66t-34 -40.5v-58q1 0 5.5 -10.5t10 -23t9.5 -24.5t4 -15h215l8 4h51q2 -5 6.5 -9t9.5 -8.5t9 -10t4 -13.5q0 -13 -4.5 -23.5t-10 -21t-10 -21.5t-4.5 -24l-37 -37h-14l-70 -76 q-10 -3 -14.5 -5t-7 -3.5t-6.5 -2.5t-15 -1v-58q11 -5 19 -19t15 -32.5t12.5 -39t11.5 -38t12 -29.5t14 -14v-43q21 -10 31 -34.5t19 -50t21.5 -46t37.5 -22.5l51 -51h61q0 -2 7 -8.5t16 -13.5t17.5 -14t11.5 -11l4 -5q-4 0 -4 -6q0 -22 4 -22l-4 -4q-7 -23 -29 -51.5 t-51 -53.5t-61.5 -42t-59.5 -17q-35 0 -76 5t-80 21q-12 9 -28.5 23.5t-32.5 31.5t-29.5 34.5t-19.5 33.5q-6 11 -10.5 36.5t-11.5 51.5t-17 46t-27 20q-10 0 -30 -24.5t-46 -61.5t-56 -80t-60 -80t-59 -61.5t-52 -24.5q-18 0 -34 11t-32 25t-33 28t-38 20l-10 4h-74 q-12 -10 -31.5 -25t-41 -29t-41.5 -24t-31 -10q-9 0 -15 4t-12 9t-11.5 9.5t-13.5 6.5v22z" />
<glyph unicode="Y" horiz-adv-x="1544" d="M534 -819q-6 7 -31.5 18.5t-55.5 24t-58.5 25.5t-40.5 24q-49 37 -83 82t-63 100l-4 6v154q8 6 15 19.5t14 27.5t13.5 27.5t13.5 19.5q8 14 23 22.5t32 16.5t32.5 18t24.5 27h80q11 0 14 -5t4 -11.5t2 -12.5t7 -8v-33q-6 -4 -6 -12t-9 -12v-14q0 -12 4 -20.5t10.5 -15 t14 -12t14.5 -12.5q11 -11 17 -27t16 -26q41 -41 90 -62.5t103 -44.5l4 -4h51l4 -10h43q0 -10 8 -10q4 0 6.5 1t4.5 1q2 -2 8 -2t6 10h80l4 10h98q29 13 63.5 29t66.5 36.5t56.5 45t32.5 53.5q0 1 3 7.5t7 14t9.5 13.5t9.5 6v43l4 4v178l-4 4v43q-11 23 -25.5 48.5 t-35.5 62.5l-41 43q0 7 -9.5 19.5t-21.5 26t-24 25.5l-17 17h-4q-10 0 -31.5 -17.5t-48 -43t-54.5 -54.5t-52 -52q-18 -18 -33.5 -27t-28.5 -14.5t-24.5 -11t-22.5 -17.5h-60q-7 9 -24 21.5t-39 25.5t-46 26.5t-44.5 26t-34 22.5t-14.5 17h-51q0 8 -15 8h-10q-11 0 -16 6 h-62l-4 -4h-51l-6 -10h-60q-9 -15 -21.5 -23.5t-26 -16t-25 -15t-17.5 -19.5q0 -2 -4 -6l-4 -4h-51l-21 18v47q9 9 17 22.5t15 28t13.5 28.5t12.5 24q15 23 50 47.5t76 46.5t82 38.5t68 22.5l4 5h219q2 -4 23.5 -12.5t48 -19t51.5 -23t33 -25.5h107q10 14 29.5 24.5 t35.5 14.5l43 41q11 3 16.5 8t9 11t7 12.5t12.5 11.5v51l10 4v360l4 4v113l-4 4l4 4v123l-4 4q4 0 4 6v17q0 6 -4 6v229q-2 0 -7 4.5t-9 6.5l-16 8q-9 0 -21 -3t-16 -12h-43q-7 19 -29 19v43l-8 4q3 0 9 11t12.5 25.5t13 28t12.5 19.5q10 6 21.5 19.5t23.5 28t25.5 26 t27.5 14.5l51 51q5 0 12 3t11 3l4 4h53q2 -4 5.5 -5.5t7 -2.5t7.5 -3t7 -7q29 -49 64.5 -83t95.5 -48q16 -4 22 -21.5t6 -33.5q0 -22 -7.5 -36.5t-19 -26.5t-25.5 -23.5t-27 -26.5v-123q6 -1 6 -12q0 -9 -1 -15t-2 -10.5t-2 -9.5t-1 -12q0 -9 2 -13t2 -12q0 -7 -4 -18v-103 l-11 -10v-215q-8 0 -8 -12q0 -15 4 -15l-4 -6v-223l4 -4q0 -4 0.5 -12t1.5 -16.5t1.5 -16.5t0.5 -12q4 -19 24.5 -45.5t45.5 -56.5t48 -59.5t32 -54.5q0 -8 14 -8q0 -8 2 -24.5t6 -33.5t10.5 -32.5t14.5 -21.5v-66l4 -10v-103l-4 -10v-69q-8 -5 -20 -28t-27.5 -56.5 t-34 -73.5t-39.5 -78t-43.5 -70t-46.5 -49q-2 -2 -9 -11.5t-16 -20.5t-18.5 -20t-15.5 -9l-39 -37q0 -10 -20.5 -26t-50.5 -34t-63 -36.5t-58 -31.5l-111 -54h-52q0 -12 -13 -12h-7q-12 0 -12 -7h-43q0 -6 -2 -8l-3 -2l-8 4l-10 -4h-135q-2 7 -12 8.5t-21 2.5t-20 4t-9 14 h-51zM254 401q0 13 5 25.5t11 25t11 26.5t5 30q0 10 -4 14v139q0 6 -7.5 11.5t-17.5 10.5t-20.5 8t-15.5 3q-8 0 -20.5 -3t-16.5 -9h-14q-16 0 -27.5 6.5t-18 17t-9.5 22.5t-3 24q0 24 16.5 50t41.5 51t55 48t57 41v113q4 4 8.5 15t8.5 24.5t7 26t3 18.5q22 10 29 28l55 56 q9 2 15 6t11.5 9t11.5 9.5t15 7.5l4 7h41q4 0 8 -4.5t7 -11t4.5 -13t1.5 -10.5q0 -13 -6 -13v-61l-9 -4v-105l4 -4l-4 -4v-94l4 -4q-4 0 -4 -6v-17q0 -6 4 -6v-299q-5 -1 -7 -7t-3.5 -13t-3.5 -14t-8 -9v-41q-5 0 -13 -9.5t-17.5 -23.5t-20.5 -30.5t-21 -30.5l-37 -37 q-8 0 -15.5 -4.5t-15.5 -10t-17 -10t-21 -4.5q-15 0 -31 10.5t-16 28.5zM534 401q0 2 2.5 10.5t6.5 17.5t9.5 16.5t10.5 7.5v835q4 0 4 10q0 4 -2 7.5t-2 7.5q0 18 11.5 43.5t30 53t42 54.5t48 48.5t47.5 35t40 13.5q11 0 16.5 -3.5t9 -9t8 -12t13.5 -12.5v-58q-7 -2 -9 -12 t-3.5 -21t-3.5 -19.5t-8 -8.5v-60l-9 -6v-317l9 -4v-303q6 0 6 -15q0 -14 -6 -14v-80l-9 -4v-51l-10 -6v-41q-8 -4 -13.5 -12t-10 -16t-8.5 -16t-9 -14q-6 -6 -24.5 -17.5t-39 -24t-38 -24t-21.5 -18.5h-59l-29 29v10v0zM-27 1331q0 27 16.5 56t42.5 57.5t59 54.5t67 45.5 t65 31t53 11.5h21l4 -4h51q0 -6 3.5 -7.5t7.5 -2t7.5 -2t3.5 -6.5h72l4 -9h41q2 8 8.5 9.5t13.5 2.5t13 4.5t8 14.5h51l29 -26v-76q-29 -15 -50.5 -46t-47.5 -66q-13 -17 -27.5 -32.5t-33 -27t-42 -18.5t-53.5 -7q-8 0 -8 10h-80q-6 7 -21.5 13t-33.5 10.5t-34.5 7 t-23.5 2.5q-12 0 -29.5 -6t-34 -15.5t-28.5 -22t-14 -25.5h-51q-8 16 -18.5 31.5t-10.5 37.5z" />
<glyph unicode="Z" horiz-adv-x="1190" d="M336 -299l-6 6h-51h-23.5t-38 -1t-39.5 -2t-29 -3q-19 -7 -40.5 -23.5t-43 -33.5t-42.5 -30.5t-40 -13.5q-14 0 -28.5 7t-25 18.5t-18 24.5t-7.5 27q0 6 20.5 41.5t52 85t69.5 106.5t72.5 106.5t55.5 92t29 49.5v7q0 11 18.5 33t40 59t45.5 78.5t45.5 78.5t35.5 65.5 t14 39.5h-45l-4 -4h-79l-73 -73h-12q-30 0 -42 17t-12 39q0 16 12 40.5t31 53.5t42.5 59t46.5 54.5t44 43t34 22.5q58 4 119 7.5t111 3.5q93 150 137.5 233.5t95.5 168.5h-26q-51 0 -99 7t-95.5 16.5t-95 16.5t-97.5 7q-61 0 -103 -20t-74.5 -44t-60 -44t-59.5 -20 q-14 0 -24 8.5t-16.5 20t-9 23.5t-2.5 20q11 5 17.5 16.5t12 25t10.5 25.5t12 19q20 39 49.5 84.5t67 86t83 69t97.5 32.5h72q52 0 101.5 -5t97.5 -16q96 -19 199 -19q37 0 80 2t81 13q13 6 27.5 14t29.5 17t29 15t28 6q6 0 17 -5.5t23 -13.5t21 -16.5t9 -16.5 q0 -26 -23 -58q-25 -37 -42 -70t-31.5 -64.5t-29.5 -62.5t-35 -64q-23 -36 -57.5 -83t-61 -99t-73 -133t-52.5 -122h6q51 0 84.5 13.5t52.5 30.5t40.5 30t49.5 13q12 0 18 -12l12 -32q0 -45 -30.5 -95.5t-76.5 -93.5t-99.5 -71t-99.5 -28q-28 0 -52.5 4.5t-48.5 4.5 q-20 3 -36 -16.5t-39 -52t-48.5 -75.5t-52 -89.5t-52 -92.5t-46.5 -86t-36 -70.5t-21 -44.5h6q5 0 21.5 6t21.5 6h100q133 0 256 -36q14 -4 51.5 -16t87.5 -28.5t106.5 -34t106.5 -34t88 -28t51 -15.5q125 -36 256 -36q39 0 65 16t46.5 36t40 36t44.5 16q7 0 19 -2.5 t12 -13.5v-77q0 -10 -8.5 -23.5t-20.5 -28.5t-23 -27.5t-19 -19.5q-38 -39 -79 -72.5t-89 -61.5q-95 -55 -219 -55q-65 0 -123 6.5t-116 17.5q-17 6 -66.5 19.5t-114.5 32t-136.5 39t-132 39t-100.5 32t-44 19.5h-82z" />
<glyph unicode="a" horiz-adv-x="1059" d="M221 13q-2 8 -10 10.5t-17.5 3.5t-16.5 4t-7 11h-88q0 10 -7 19.5t-22 9.5v41q6 2 7 9t3 15t6.5 16.5t12.5 10.5v98l4 6v70l-4 4v98q0 2 25.5 18.5t64.5 39t85 50t87 50t70.5 38t36.5 15.5l4 4h71q17 0 22 -15t5 -26v-18l-4 -10l4 -11q0 -2 -20.5 -15t-45 -29.5t-46 -30 t-23.5 -13.5l-37 -37v-61q-4 0 -6 -2t-4 -2q0 -8 3 -9t3 -5q0 -15 -6 -15v-33l6 -4l-6 -10v-59q0 -15 17 -22t38.5 -12t41 -9t26.5 -15h32q4 7 18.5 12t30 10t27.5 11t12 15v200l4 4v211l-4 4q-6 17 -22.5 32t-35.5 27.5t-42 19.5t-41 7q-2 13 -9 18t-16.5 9t-18.5 8t-15 17 h-52q-8 -13 -23 -22t-31.5 -18.5t-32 -18.5t-21.5 -21h-51q-15 16 -31 26.5t-16 38.5q0 10 5 17.5t5 23.5q61 51 115 92q45 35 84.5 66t48.5 35q10 8 26.5 15t24.5 17h88q12 -18 55 -45.5t89 -53t83 -44t39 -20.5h90q17 0 32 -20.5t15 -35.5v-18q-6 -2 -10 -13.5t-9 -24.5 t-11 -23.5t-17 -10.5h-4v-80l-10 -4v-125q-10 0 -10 -10q0 -8 3 -10t3 -8q0 -15 -6 -15v-182q4 -2 30.5 -31.5t59.5 -62.5q6 -4 14 -9t12 -10h86q2 -2 14.5 -9t12.5 -13v-72q0 -8 -31.5 -29.5t-71.5 -43t-78 -39t-52 -17.5q-11 0 -29.5 4t-18.5 15h-40q-5 6 -15 15 t-22.5 18.5t-22.5 15.5t-16 6l-51 51h-52q-4 -6 -34.5 -25.5t-67.5 -41t-72 -40t-51 -24.5l-4 -4h-41q-2 0 -15.5 8t-27.5 17.5t-25.5 18.5t-11.5 11h-43z" />
<glyph unicode="b" horiz-adv-x="1186" d="M292 69q-1 5 -7.5 7.5t-14.5 4.5t-16 2.5t-11 0.5h-2h2q-8 0 -13 -5v5l-14 4l-37 39v8q0 11 5.5 26t13.5 30.5t17 29.5t15 22v944l-10 14t-22.5 30.5t-22.5 30.5l-10 14v-1h-99q0 22 -18 29v43q0 17 10 27l66 65q16 6 32 20l32 28t32 25t33 11h86l92 -88q7 -4 21 -13 t28 -20.5t24.5 -23.5t10.5 -23v-219l-4 -4l4 -10v-14q0 -5 -4 -5v-159q4 -4 7 -5t7 -10h8q59 16 99 59q12 12 26.5 28t29.5 30t29 23.5t24 9.5h7q18 0 29 14h51q6 -7 23.5 -18t36 -24t33.5 -27.5t16 -28.5l41 -41q0 -15 11.5 -23t25 -14t24.5 -12t11 -17v-4q6 2 16 2 q22 0 37.5 -14t15.5 -39v-24q-8 -3 -13 -8.5t-9.5 -12.5t-9 -15t-11.5 -16v-172l6 -10l-6 -4v-43l6 -4l-6 -10v-164q-4 0 -6 -2l-2 -2q0 -9 5 -16.5t11.5 -15t11.5 -14.5t5 -16q0 -23 -21 -44.5t-52 -40.5t-67.5 -37t-67.5 -34t-52 -30.5t-21 -28.5q-24 -3 -53 -19 t-59.5 -35.5t-61.5 -37.5t-59 -25l-6 -4h-56q-6 10 -32.5 26t-58 33t-58.5 33.5t-33 28.5h-51zM501 290l77 -49q29 -18 55.5 -35t31.5 -24h57q4 4 15 14t22 15l51 51q0 4 2 14t2 14l6 4v408q-18 2 -36.5 22.5t-37.5 44.5t-39.5 44t-41.5 20q-3 0 -15.5 -5.5t-29.5 -14.5 t-36.5 -20t-35.5 -21.5t-26.5 -19t-10.5 -13.5v-397l-10 -7v-45z" />
<glyph unicode="c" horiz-adv-x="952" d="M386 26q-2 8 -11.5 10t-20.5 3t-20 3.5t-9 11.5h-52l-4 4h-79q-5 -8 -20 -11t-23 -3q-15 0 -23 5t-13 11.5t-8 12.5t-8 8v43q4 2 15.5 20.5t25.5 41t28 42t21 23.5v405q0 11 -14 11t-14 -7h-43q-2 7 -8 8t-12.5 1t-11.5 1.5t-5 10.5v70q23 11 41 39q15 23 34.5 37.5 t42 25t46.5 20t47 23.5q16 9 24 23t17 28q7 10 32.5 29.5t59.5 42.5t72.5 47.5t70.5 45t53 34.5t21 16h51q11 -18 33 -18v-51q-2 0 12.5 -15.5t36.5 -39.5t48.5 -52.5t49.5 -54.5t38.5 -46.5t15.5 -27.5t-4 -20.5t-11.5 -26t-17 -22t-21.5 -9.5h-6l-53 -53 q-10 0 -21.5 -10.5t-15.5 -16.5h-80q-4 6 -15 16.5t-22 10.5l-36 39v14l-48 41v4q0 8 -8 19t-18.5 21.5t-21.5 18t-17 7.5h-18l-29 -27v-61l4 -4v-222l-4 -4v-61q-8 0 -8 -8t2 -12.5t2 -12.5t-4 -8v-90l-11 -4v-88q0 -11 19 -11h14q15 0 15 -8h40q2 -7 15 -13.5t31 -13 t38 -12t37.5 -10t29.5 -9t13 -7.5h52q4 6 12 6t12 8h33q4 -9 10.5 -12t12.5 -5t10 -6t4 -16q0 -13 -6 -32t-16.5 -36.5t-25.5 -29.5t-32 -12l-41 -43q-11 -2 -22 -11t-22.5 -19t-22.5 -19.5t-23 -12.5l-4 -4h-70q-2 7 -21.5 14.5t-42.5 16t-42 17.5t-21 18h-41z" />
<glyph unicode="d" horiz-adv-x="1085" d="M122 76q2 -2 2 -6q0 -10 -13 -10h-6q-11 0 -16 -9h-14q-11 0 -24 2t-13 17v61q10 10 10 19l41 43q2 6 12.5 20t23 28t23 24.5t11.5 10.5v117l6 4l-6 11v32l6 4v52l-6 4v108l-13 15h-53q-9 0 -12 4t-4 10t-2.5 12t-7.5 10v33q3 2 6.5 8t7.5 13.5t7 14.5t5 11q4 3 18.5 15 t34 27t41.5 32t40.5 31t32 22.5t15.5 7.5l56 52q8 0 20.5 11.5t27.5 26t32.5 27t33.5 15.5v32q-6 3 -15.5 15t-20.5 34q-13 27 -28.5 64.5t-29 71.5t-23 58t-10.5 24v69l-10 4v72q4 0 9.5 11t12.5 25.5t13.5 28.5t11.5 19q14 8 30.5 19t34.5 21.5t36 17.5t34 7 q12 0 20.5 -6.5t14.5 -15.5t10.5 -19.5t8.5 -19.5l2 -2q2 -2 6 -2v-43q5 0 6 -3.5t2 -8t2.5 -8t7.5 -3.5v-43q5 0 8 -4.5t6 -10t6.5 -10.5t8.5 -7v-41q-4 4 5 -11t24.5 -40t34.5 -55.5t35.5 -57.5t28 -46.5t11.5 -23.5l58 -57q5 0 20.5 -11t33.5 -25.5t34.5 -28t23.5 -19.5 q7 -2 29 -8t45.5 -13.5t42 -15.5t18.5 -14v-62q-7 -2 -15.5 -11t-17 -19t-16 -18.5t-12.5 -10.5v-164q-8 0 -8 -6t2 -8t2 -11q0 -7 -0.5 -10t-1.5 -5t-1.5 -4t-0.5 -7q0 -10 2 -14.5t2 -14.5t-4 -10v-98q-6 0 -8 -2l-2 -2l2 -7q2 -2 8 -2v-53q5 -2 8 -7.5l6 -11t7.5 -10 t13.5 -4.5h6v-59q-5 -2 -8.5 -8t-6.5 -13.5t-6.5 -14.5t-7.5 -11q-60 -39 -124 -75t-124 -71q-26 -15 -49 -33.5l-46 -37t-47 -34.5t-52 -26l-6 -4h-80q0 10 -12.5 19.5t-31 19t-41 18.5t-43 18t-35.5 17.5t-20 16.5h-153zM402 303q11 -2 42 -14.5t64 -27.5t60 -29.5 t31 -20.5h51l4 4q9 4 15.5 9t11.5 9.5t10.5 8.5t14.5 6v528q-4 0 -19.5 8.5t-34 19t-34 20.5t-19.5 14q-3 2 -9 10t-12 17t-12 16.5t-10 7.5h-51q-2 -6 -18.5 -15t-35 -19.5t-34 -21t-15.5 -20.5v-88l5 -4v-287l-5 -4v-127v0z" />
<glyph unicode="e" horiz-adv-x="946" d="M202 78q-2 4 -5.5 6t-7.5 3.5t-6.5 3.5t-2.5 7h-80q0 7 -14 7h-8q-15 0 -15 12v41q9 4 13 12t7.5 17t8 18t12.5 14q0 1 6.5 4.5t8.5 5.5v52l4 4v41l-4 6l4 8v240q-8 6 -12.5 11.5t-9.5 10t-13 7.5t-25 3q0 4 -3 11.5t-3 11.5l-4 4v53q16 5 33 33q18 27 39.5 45t45.5 32.5 t49 27.5t48 30l14 4l52 51q14 0 20 10.5t16 18.5q20 11 56 32.5t76 43.5t77 38.5t58 16.5h19t10.5 -1.5t10 -5.5t17.5 -11l14 -20.5t35 -51t45 -66.5t44.5 -68t34 -54.5t13.5 -26.5l-4 -4v-41q-7 -2 -13 -10t-11.5 -17.5t-10.5 -18t-8 -11.5q0 -1 -19.5 -18t-49 -43 t-64.5 -55.5t-67.5 -54.5t-58.5 -42t-36 -17l-41 -41q-3 0 -10.5 -2t-16 -5t-14.5 -6t-6 -5h-32l-5 4h-32q0 -7 -11 -18v-52q0 -1 22 -13t56 -28.5t74.5 -35.5t77 -35t64 -26.5t34.5 -10.5q21 0 41.5 8t40.5 17.5t40.5 17.5t41.5 8q1 0 7 -4t12.5 -9t12 -9.5t5.5 -6.5v-32 q-15 -8 -30 -37q-11 -22 -22.5 -33t-23 -16t-24 -8.5t-25.5 -12.5q-24 -16 -46 -40.5t-52 -39.5q-8 -5 -20 -7t-24.5 -4t-23.5 -5.5t-16 -11.5h-95q-4 5 -26 17.5t-52.5 28t-65.5 32t-66.5 30t-54.5 22.5t-30 9zM381 500h32q9 0 9 10q14 22 35.5 41t46 37t49 36.5t43.5 39.5 v4q0 16 -13 32.5t-29 33t-29 32.5t-13 31v6h-58q-8 -15 -22 -21l-28 -12t-24 -16.5t-10 -34.5v-4l7 -4v-109l-7 -4v-33l11 -4v-61z" />
<glyph unicode="f" horiz-adv-x="769" d="M149 -229q10 4 21.5 17t23 28t20.5 29t15 20v55q-16 8 -25.5 29.5t-16.5 45t-15 44t-23 26.5v99l11 10v223q4 4 4 15q0 10 -4 10v88q4 4 4 12q0 12 -2 14.5t-2 10.5q0 14 2 21t2 22v22q-4 0 -4 8v7q0 18 4 22v76l-19 22h-61q0 3 -4.5 6.5t-10 8l-11 9t-7.5 9.5l-4 6v23 q0 30 18.5 48t40 33.5t40 34t18.5 48.5v22q-7 5 -11.5 11t-8.5 12.5t-8.5 14t-12.5 15.5v27q0 31 15 54.5t38 43t51 36.5t53 34q9 6 30 25t49 45.5t58.5 57l58 58t48.5 50t29 32.5h59q14 -20 32 -41.5t38.5 -41t43.5 -35t46 -23.5l4 -4h51q3 -7 9 -12.5t13 -10.5t12 -11.5 t5 -16.5t-1.5 -23t-6.5 -25t-13 -20t-22 -8l-98 -98q-4 0 -11.5 -2t-7.5 -7h-43q0 -6 -2 -8l-2 -2q-15 0 -30.5 9t-30.5 19.5t-29 19t-27 8.5l-51 53q-4 0 -7 2t-11 2q-10 0 -23.5 -6t-25 -16t-19.5 -22.5t-8 -25.5q0 -5 2 -13t6 -16.5t8.5 -16t8.5 -11.5v-98q-6 0 -6 -15 q0 -14 6 -22t16 -12.5t23 -5.5t26 -1q15 0 19 4h116q5 -9 12 -9h4q11 0 17 -13l4 -6v-41q-9 -2 -11.5 -11t-4.5 -18.5t-8 -17t-23 -7.5q-4 0 -7 1.5t-7 1.5q0 -12 -14.5 -22t-31.5 -19t-31.5 -17.5t-14.5 -17.5v-4h-72l-8 -15v-51l-10 -4v-31q0 -11 6 -16v-277q-6 0 -6 -14 q0 -6 3 -11t3 -16v-6l-6 -4l6 -8v-43l-6 -4v-57q14 -21 26 -46.5t35 -46.5v-163q-10 -7 -20 -25.5t-20.5 -41t-21.5 -43.5t-22 -32q-18 -18 -35.5 -30.5t-36.5 -23.5t-39 -21.5t-43 -22.5l-6 -4h-55q-7 18 -29 18v52z" />
<glyph unicode="g" horiz-adv-x="1163" d="M353 -678q-4 6 -27 16t-51 22t-54.5 24t-37.5 22q-45 45 -78.5 88t-56.5 103l-4 6v96q6 2 10.5 11t8.5 19.5t8 20.5t10 14q3 3 6.5 3.5l7 1t5.5 2t2 6.5q0 6 -2 8l38 37q6 0 13.5 2t14.5 5t12 7.5t5 9.5v4h72q9 0 12.5 -9t6 -19.5t5.5 -19.5t9 -9v-51q6 0 11 -11.5 t10.5 -26.5t11.5 -28.5t14 -17.5q4 -4 20.5 -15.5t34.5 -24.5t32.5 -25.5t14.5 -18.5q16 0 33 -5.5t35 -12.5t35 -14.5t33 -10.5l4 -4h98l10 4l8 -4q7 0 7 10h41l4 8h53v4q0 11 13 16t24 9l53 51q8 0 16.5 10t15.5 23.5t12 27t5 19.5q0 4 -2 7t-2 12q0 4 2 5t2 9l-4 4v43 q-2 0 -12.5 19t-26 48t-34.5 63t-37.5 65.5t-35.5 55t-28 30.5h-4q-7 0 -30.5 -13.5t-49.5 -31t-48 -34t-26 -20.5h-43l-4 -10h-33l-4 10h-43q-6 8 -30.5 19.5t-52 23t-49 20t-21.5 11.5h-52l-6 10h-116l-27 27v43q3 2 7.5 7.5t9.5 12l10 13t10 10.5v69l4 5v174q-4 0 -4 8 q0 11 1 14.5t2 6.5t2 7.5t1 16.5q0 6 -6 6v43q4 0 4 14q0 9 -4 9v65h-84l-29 29v61q2 0 25.5 19t54.5 42t62.5 42.5t50.5 21.5l41 43q1 0 21.5 12.5t50.5 31.5t66 41t68.5 41.5t58 33.5t34.5 16q8 4 21.5 8.5t17.5 12.5h41q0 -1 15 -12.5t38.5 -28t52 -36t55 -37.5t48 -31.5 t30.5 -18.5q3 -2 9.5 -3.5t13.5 -3t13.5 -4t8.5 -8.5h43q0 5 15 5q10 0 23 -9.5t28 -9.5v-72q0 -5 -3 -6.5t-7.5 -2.5t-8.5 -1t-6 -2q2 -2 2 -6q0 -10 -4 -16t-6 -6v-136q-10 0 -10 -6v-18q0 -8 6 -8v-43l-6 -5v-163q-4 0 -6 -2l-2 -2l2 -9q2 -2 6 -2v-127q4 0 15.5 -18 t27 -44.5t33 -57t33 -56.5t28 -43.5t18.5 -17.5q0 -4 1 -12.5t3.5 -17.5t6 -16.5t8.5 -9.5v-51q-6 0 -6 -8q0 -16 3 -18t3 -7q0 -17 -9 -40.5t-23 -48.5t-29.5 -50t-29.5 -45.5t-23 -35.5t-9 -19l-37 -37q-10 -2 -26.5 -17.5t-34 -34.5t-33.5 -37t-27 -24q-36 -20 -64.5 -38 t-57 -34.5t-60.5 -32t-76 -30.5l-4 -4h-61l-4 -10h-154l-6 10h-60zM409 274q19 -2 47.5 -9t57.5 -18t54 -25.5t37 -31.5h88q2 4 8.5 9t14 9.5t15 7.5t10.5 3q0 10 2 23.5t12 13.5v193q4 0 4 8t-2 10t-2 8l4 6v183q-10 1 -32 12t-49 27t-56.5 35.5t-55 37.5t-44.5 33t-25 22 h-4q-15 0 -30 -8.5t-29.5 -19t-28 -19t-25.5 -8.5v-10q0 -30 29 -47v-182l4 -5v-79l-4 -4q0 -11 3 -16t3 -15q0 -6 -6 -6v-138v0z" />
<glyph unicode="h" horiz-adv-x="1127" d="M701 132l10 4v455l5 4v61q0 4 -20.5 15.5t-46 24.5t-47.5 25.5t-26 18.5h-33q-2 -3 -10 -8.5t-17.5 -10.5t-18 -10t-11.5 -8q-4 -4 -9 -13t-11.5 -18t-15 -16.5t-19.5 -9.5v-424q0 -3 11.5 -12.5t26 -21t27 -22t15.5 -15.5v-41q-7 -4 -10.5 -13t-7.5 -18t-9 -16t-14 -7 q-4 0 -5 1t-5 1l-72 -71q-1 0 -10 -2t-19 -5t-18 -6t-8 -6h-33q-1 4 -14 11.5t-31 16.5l-40 20t-41.5 22.5t-34.5 23.5t-21 23l-5 6v33q8 5 18 30q7 18 13 26.5t11.5 13.5t11.5 8.5t12 9.5v481l4 4v127l-4 4v72q4 0 4 6q0 10 -2 11.5t-2 9.5q0 6 8 6v125q4 0 4 10 q0 23 -13.5 40t-30.5 31.5t-31.5 27t-16.5 26.5h-43q0 2 -4.5 5t-10 7.5t-11 9.5t-7.5 11l-4 6v51l56 55q3 0 20.5 12.5t39 28.5t41 30.5t25.5 18.5l5 5h71q6 -9 28.5 -36.5t48.5 -58t49.5 -55.5t31.5 -29v-145l-4 -4v-201q-4 0 -6 -2t-4 -2q0 -8 3 -9t3 -5q0 -8 -3 -11.5 t-3 -7.5t2 -10.5t5 -13t7.5 -11t9.5 -4.5q4 0 16.5 10.5t31 27t40 36.5t43.5 37.5t41.5 31t32.5 17.5q4 0 12 5t13 9h18q15 0 45 -18t66 -41.5t73 -47t64 -34.5l4 -4h43q0 -14 27 -14v-80q0 -9 -7.5 -14l-16.5 -11t-16.5 -15t-7.5 -26l-4 -4v-471q0 -12 14.5 -22.5t33 -19.5 t35 -17t20.5 -17h13t20.5 -1.5t19 -6.5t8.5 -14v-43q-12 -6 -20 -19t-17 -26.5t-20.5 -24t-30.5 -10.5l-51 -51q-4 0 -13.5 -2t-19.5 -5t-17 -6.5t-7 -5.5h-33q-10 16 -31 16h-8q-10 0 -32 13t-45.5 34t-44.5 47.5t-30 53.5l-6 4v33z" />
<glyph unicode="i" horiz-adv-x="599" d="M163 139q5 2 7 5.5t4 8t5 10t10 9.5v237l6 10l-6 5v71l6 4v4q0 4 -3 5.5t-3 9.5q0 4 3 5t3 9q0 4 -3 5t-3 9q0 4 3 5.5t3 9.5l-6 4v33q6 0 6 14q0 4 -3 7t-3 11v4q0 5 6 5v61q-10 6 -16.5 13.5l-13 15t-13.5 13.5t-18 9l-2 2q-2 2 -2 8h-51q-5 7 -12 13t-17 6v51q4 2 8 8 t8 13.5t7.5 14.5l5.5 11q6 12 29 32.5t51 40t55 34t41 14.5q6 0 21.5 -9.5t35.5 -24.5t42 -32.5t40.5 -32.5t30.5 -26.5t12 -13.5v-539l-4 -4v-90q0 -7 12.5 -16.5t29 -18t33 -14.5t23.5 -6l10 4h47l19 -19v-69q1 -2 -11 -12.5t-31 -24t-42 -29t-43.5 -28.5t-35.5 -22.5 t-19 -10.5l-6 -4h-52l-45 16q-16 5 -30.5 11.5t-16.5 8.5q-5 6 -21 20t-34.5 28t-34.5 25t-22 11v62zM79 1257q0 8 -2.5 18.5t-10.5 10.5q-4 0 -6 -2v43q4 2 12.5 14t18.5 29l24 41l56 55q5 2 17.5 7.5t25.5 12t22.5 12.5t9.5 7h33q6 -15 21.5 -24.5t32.5 -18t32 -17 t21 -20.5h43q2 -8 8 -10.5t12.5 -4t11.5 -5t5 -13.5v-51h-23v-14l4 -19q0 -10 -7 -19t-19 -9h-7l-36 -37v-4q0 -13 -11 -20t-25 -12t-27 -10t-17 -16h-52q-6 11 -17.5 18.5t-25 15.5t-26 17.5t-19.5 24.5h-79z" />
<glyph unicode="j" horiz-adv-x="568" d="M-314 -705q-15 3 -28.5 21t-25 39t-20 38t-14.5 19v80q18 8 28.5 22.5t22.5 31.5t31 34t53 29l4 4h62q12 0 18.5 -8t9.5 -19t4 -22t1 -17l90 -88q16 -8 41.5 -18t42.5 -21h84q14 9 27.5 15t27.5 6l51 51q4 10 8 27.5t11 27.5v103q-7 4 -7 14t-6 10v60q-12 0 -12 18v10 q0 15 -8 15v43l-8 4v14q0 2 -1 5t-1 7q0 9 10 15v356l10 8v123l4 8l-4 15q0 13 4 24v308l-47 47q-15 2 -31 7.5t-28.5 15t-20.5 22.5t-8 30q0 31 20.5 56t48.5 46t56 39.5t43 35.5h65q24 -22 49 -48.5t46 -50.5t34 -41.5t13 -21.5q0 -10 -3 -13.5t-3 -11.5q0 -6 3 -11t3 -11 q0 -4 -3 -6.5t-3 -12.5t3 -16t3 -17q0 -4 -3 -6t-3 -8q0 -8 3 -12t3 -12v-5q0 -4 -6 -4v-57q6 -1 6 -18v-5l-6 -4l6 -14l-6 -4l6 -10l-6 -11v-153l-9 -4v-393l9 -11v-92q11 -11 13.5 -23.5t3.5 -26t3 -27t12 -25.5v-127l-4 -4v-43q-1 0 -6.5 -14t-12 -32t-12.5 -34.5 t-10 -22.5q-30 -59 -72.5 -101t-91.5 -74.5t-102 -60.5t-104 -59l-4 -4h-43q0 -5 -4 -8.5t-9.5 -6.5l-11 -6t-8.5 -7h-140q-6 6 -19 12.5t-27.5 12t-28.5 8.5t-23 3zM98 1300q0 11 -8 19v80q6 2 21 17t33 33.5t34.5 36.5t23.5 25h74q11 0 25 -10.5t28.5 -24.5t27.5 -28 t21 -21q11 0 11 -10v-88q0 -2 -6 -7.5t-13.5 -11t-14.5 -10t-9 -4.5l-37 -36q-2 -13 -10.5 -19.5t-18.5 -11t-19.5 -8.5t-13.5 -13h-55l-94 92v0z" />
<glyph unicode="k" horiz-adv-x="1072" d="M141 44q-6 -2 -14 -2q-12 0 -19 5.5t-13 12t-13 12t-18 5.5v24l26 56q10 2 22.5 11.5t23.5 21.5t18.5 25t7.5 22q0 10 -3 14t-3 14q0 8 10 8v109l4 4v98q-4 0 -4 6q0 11 2 14t2 13q0 8 -2 10t-2 13v8q0 6 4 6v670l-29 32h-59q0 3 -4.5 7.5t-10 9.5t-10 11t-4.5 13 q0 19 12 41t31 43.5t43 42t48.5 36t47 25t38.5 9.5q10 0 16 -4t22 -4l56 -58q0 -14 11 -25t26 -11l36 -37q0 -4 3.5 -16.5t3.5 -16.5l4 -6v-172l-4 -4v-90q-11 0 -11 -9q0 -10 2 -13t2 -11q0 -10 -2 -12.5t-2 -6.5q0 -6 2 -8t2 -10t-6 -10t-6 -8q0 -9 3 -12t3 -19 q0 -6 -6 -6v-43q-4 0 -11 -5.5t-7 -9.5v-4q0 -4 7 -9t11 -5v-41h41q7 0 9 4.5t2.5 10t3 10t10.5 4.5q6 0 12 -2l53 51q3 0 17.5 7t30 16t29 18.5t15.5 15.5h70q4 0 16.5 -14.5t29.5 -37t36.5 -49.5t38 -51t34 -41.5t23.5 -21.5v-61q-10 -9 -16 -27t-10 -29l-62 -61 q0 -4 -5 -11.5t-5 -11.5q20 -9 39 -25.5t37.5 -36.5t36.5 -41.5t36 -41.5v-62l7 -4l-7 -10v-51q-4 0 -6 -2l-2 -2q0 -12 7 -21t16 -16.5t18.5 -13.5t14.5 -11h127l28 -41q0 -8 -10 -22t-26 -31t-34.5 -34.5t-35 -32t-29 -24.5t-16.5 -11q-2 -3 -13 -6.5t-24 -6.5t-24 -6.5 t-13 -7.5h-70q-2 4 -15 8.5t-28.5 9t-30.5 9.5t-20 10q-14 14 -33.5 36.5t-40.5 37.5v43l9 4v43l4 4v61q-3 0 -5.5 9.5t-5.5 21.5t-6.5 24.5t-9.5 18.5l-14 6q-4 0 -9.5 7.5t-5.5 11.5h-43q0 8 -12 8h-12q-17 0 -17 10h-43l-4 4q-51 0 -51 51q0 24 13.5 44t33.5 37t44 31.5 t44 26.5t33.5 22t13.5 18v14q-9 7 -20.5 23.5t-24 34t-25.5 31t-24 13.5q-12 0 -34.5 -14t-45 -32.5t-39 -36t-16.5 -23.5q0 -10 2 -13.5t2 -11.5q0 -10 -2 -12t-2 -6l4 -10v-60l-4 -6l2 -6q2 -2 8 -2v-266q0 -4 9.5 -12t20.5 -18.5t20.5 -23t9.5 -26.5q0 -31 -20.5 -51.5 t-47.5 -37.5t-53 -34t-37 -41h-43q-2 7 -22.5 18t-46 23t-48 24.5t-29.5 22.5z" />
<glyph unicode="l" horiz-adv-x="618" d="M169 119q4 3 6 8.5t3.5 11.5t4 10.5t8.5 4.5q5 0 7 -2v80l4 4v33l-4 4v502q-11 0 -11 8t2 11t2 14v4q0 4 -4 4v32l4 5v90l-4 4v43l4 4v164q-10 6 -13 9.5t-5.5 6.5t-6 6.5t-15.5 10.5l-3 2q-2 2 -2 6h-71l-19 19q-8 8 -11.5 13t-6.5 7v32q2 0 8 7.5t14 19t17 24.5t16 23 l39 37q6 0 18.5 10.5t29 22.5t34.5 22.5t35 10.5h8q7 -4 24 -15t39 -26t45.5 -31t43 -29.5t32.5 -22l13 -8.5v-321l-4 -4v-33l4 -6v-98l-4 -5v-32q6 0 6 -6q0 -7 -2 -9q0 -2 1 -4t1 -6q0 -8 -6 -8v-70l8 -4v-510q0 -4 19.5 -12.5t44 -17t46.5 -15t27 -6.5v-72q0 -10 -21 -24 t-47 -30t-48.5 -33t-24.5 -33h-136q-6 14 -25.5 24t-43 20t-45 22.5t-31.5 31.5l-4 4v61z" />
<glyph unicode="m" horiz-adv-x="1608" d="M165 117q0 5 1.5 13.5t5 17t9 15.5t13.5 9v52q6 0 6 8q0 16 -3 19t-3 10q0 4 2 6t2 8v6q0 4 -4 4v41l4 6v293q-8 5 -13.5 12t-11.5 14.5t-14 14.5t-20 12l-2 2q-5 5 -5 7h-40q0 2 -4.5 5t-11 6t-12.5 5t-9 2q0 18 -5.5 25.5t-5.5 21.5q0 24 21 53t50 54.5t60 45t52 25.5 l4 4h33q0 -1 11 -8.5t28 -19t36.5 -26t37.5 -30.5t32 -31.5t18 -29.5q3 -10 11 -18.5t22 -8.5q5 0 19 11.5t34 29l44 38.5t47.5 39.5t44.5 32.5t36 17l5 4h43q0 -2 11.5 -10t26 -18.5t28 -20.5t17.5 -16q7 -9 17 -27t23 -36t29 -31t34 -13q20 0 42.5 19.5t44.5 44t42 46 t35 25.5q11 5 18.5 5.5t13.5 1.5t11.5 5t11.5 17h51q6 -12 31.5 -35.5t56.5 -47t60 -41t41 -17.5q26 -10 38.5 -19.5t16.5 -9.5v-69l-41 -41v-80l-10 -4v-193q-10 0 -10 -6v-8q0 -26 13 -56t34 -56t47.5 -43t54.5 -17q25 0 49.5 11t48.5 11h11l28 -28v-52q0 -6 -7.5 -13 t-17.5 -13.5t-20 -10.5t-16 -4l-51 -51q-3 0 -21 -7t-40.5 -16t-44 -18t-30.5 -12l-6 -4h-78q-2 6 -13 11t-23.5 8t-24 5.5t-14.5 4.5q-19 12 -38.5 31t-36.5 41.5t-30.5 46t-21.5 44.5l-4 4v80l4 4v136l-4 6v200q0 6 -12.5 17t-28.5 22t-32 19t-22 8q-15 0 -26.5 -9.5 t-21 -21t-18 -22t-18.5 -13.5v-210l-8 -5v-182q9 0 18.5 -5t19 -11.5t19 -11.5t17.5 -5h6v-79q0 -1 -14.5 -12.5t-33.5 -26.5t-36.5 -29.5t-23.5 -20.5q-9 -10 -26 -19t-36 -13h-33l-4 8h-41q-48 29 -78 50.5t-53 43.5v41q8 4 10.5 13.5t4.5 19.5t7 18t19 10v416l-84 84h-41 q-8 -18 -26.5 -29.5t-37.5 -23.5t-33.5 -28.5t-14.5 -43.5q0 -6 4 -6v-172l-4 -4q0 -8 2 -10t2 -10q0 -9 -4 -9v-98q-7 0 -9 -2l-2 -2q0 -21 17 -33t37.5 -23.5t37.5 -24.5t17 -36q0 -27 -12.5 -44t-29.5 -29t-36 -22t-31 -22l-4 -24q-8 -8 -12 -8q-6 0 -8 4t-6 4 q-1 -2 -3 -5q-2 -2 -3.5 -5.5t-4.5 -8.5h-71q-3 8 -15 16.5t-28.5 19t-35 22t-34.5 27t-26.5 34t-10.5 41.5z" />
<glyph unicode="n" horiz-adv-x="1160" d="M812 45h-4q-15 0 -23.5 13t-15 29.5t-12.5 33t-17 22.5v182l6 9l-6 6v18q0 4 1 11.5t5 11.5v178q-8 4 -29.5 22.5t-44 40.5t-40 41.5t-17.5 26.5h-57q-2 -6 -13.5 -15.5t-26 -20.5t-28.5 -22.5t-20 -21.5q0 -14 -14 -14v-19q0 -14 2 -23t2 -24v-14l-4 -4v-201l-11 -4v-66 q0 -13 17 -21.5t37.5 -18t37.5 -22.5t17 -36v-18q-11 -8 -21 -23t-21 -30t-24.5 -26t-31.5 -11l-41 -41q-5 0 -13 -3.5t-12 -3.5l-4 -4h-47q-6 10 -23 16.5t-35.5 12.5t-33.5 14.5t-17 22.5h-51q-2 3 -8.5 8.5t-14 11t-14 10.5t-8.5 7v28q0 21 9 39.5t22 36t26 34.5t21 36 q-4 0 -4 8v16q0 9 4 13v225q-4 0 -4 4l4 23q0 33 -24 54.5t-53 38t-53 32.5t-24 37q0 35 19 64.5t46 54.5t55.5 45.5t47.5 37.5h66q6 0 14.5 -10.5t18.5 -26.5t22 -34.5t27 -34.5t32.5 -26.5t38.5 -10.5q3 0 21 11.5t44 28.5t56 38t57 40t47 34t25 20h74q2 0 8 -6t12 -15 l17 -20l80 -82q0 -9 11 -16.5t23.5 -14t23.5 -11t11 -7.5h43l4 -10h43q0 -6 4 -11t9.5 -11t9.5 -12t4 -14q0 -22 -11 -37.5t-24 -25.5t-24 -15.5t-11 -9.5v-61l-8 -4v-193q-10 0 -10 -6v-8q0 -12 11.5 -39t26.5 -54.5t31 -48t25 -20.5h98q6 0 8 -4t3 -9.5t2.5 -11t5.5 -8.5 v-43q-10 -8 -14.5 -20t-14.5 -16q-35 -14 -57.5 -34t-54.5 -42q-9 -6 -23 -8.5t-28 -5.5t-26 -8t-16 -15h-32q0 1 -9 5.5t-20.5 9.5t-22.5 9.5t-14 4.5z" />
<glyph unicode="o" horiz-adv-x="1078" d="M348 6q0 6 -22 16t-49 21.5t-50 23t-25 20.5h-41q0 4 -12 8t-26 10.5t-26 18.5t-12 33q0 15 8 28t17 25.5t17 25.5t8 28q0 10 -2 16l4 4l-4 8v33l10 6v78l4 6l-4 8l4 11l-4 8v80q-6 0 -18.5 2.5t-25 6t-22.5 7.5t-10 8v70l37 37q8 0 14.5 6t12 14t10.5 15.5t10 11.5 q-4 -2 16 12t52 36t71 48.5t73.5 49.5t60 38.5t30.5 15.5l43 44q5 0 19 6t30 15t29.5 18.5t15.5 15.5h60q8 -10 22.5 -17.5t24.5 -11.5l37 -37q0 -18 24 -37t54.5 -37.5t58.5 -36.5t37 -34h51q2 -7 8 -10t12.5 -5t11.5 -5.5t5 -12.5v-41q-8 -4 -11 -11t-5.5 -15t-5.5 -15 t-11 -10v-305q-8 0 -8 -6v-9q0 -9 5 -15t11.5 -10.5t11.5 -9t5 -10.5v-43q-7 -8 -30 -30.5t-56 -48.5t-74 -51t-84 -38q-33 -8 -70 -29.5t-73.5 -44t-69.5 -40t-57 -17.5q-19 0 -34.5 7.5t-29.5 16t-29 16t-34 7.5v3zM585 194q0 -4 8 -4h13q5 0 20.5 4.5t33 11t31 15 t13.5 16.5v201q4 0 4 10q0 6 -2 8t-2 10l4 4l-4 11v80l-10 4v41l-6 6q-10 3 -18 9.5t-16.5 13.5t-19 13.5t-24.5 8.5l-52 53q-4 0 -11.5 6t-15.5 14t-14 15t-6 10h-32q-7 -7 -20 -14.5t-27.5 -15.5t-27.5 -16.5t-20 -18.5v-9q0 -10 4.5 -26.5t10.5 -20.5v-88l-4 -6l4 -8 l-4 -10l4 -9l-4 -10v-135q-4 0 -6.5 -2t-4.5 -2v-6l7 -4l-7 -11v-59q23 -2 47.5 -16t50 -30.5t50 -30t47.5 -13.5h6v0z" />
<glyph unicode="p" horiz-adv-x="1122" d="M150 -434q0 12 5.5 28t14.5 31.5t20 29t22 19.5v277q-8 0 -21.5 -5t-27 -11.5t-23.5 -14t-12 -12.5h-15q-24 0 -35.5 17.5t-11.5 39.5q0 8 8 8v43q21 9 21 27l92 94q2 0 6.5 1.5t9.5 3.5t9 4.5t4 5.5v135l4 4v51l-4 6v266q-10 0 -24 8t-26.5 19t-23 23t-14.5 20h-80v6 q0 13 -10 13q-2 0 -4 -0.5t-4 -0.5q-11 0 -11 11v51q7 5 13 13t12 15.5t12 14t14 8.5l51 51q4 0 19 10t33 22.5t34.5 24t22.5 13.5l4 6h33q10 -10 18 -10l37 -37q2 -17 18.5 -33t36 -29t36 -22.5t18.5 -13.5h18q7 0 11.5 3l9 6t9.5 6t13 3l117 117q7 0 17 6t19.5 13.5 t17.5 15.5t11 12h41q6 -6 15 -10.5t17.5 -10t14 -12.5t5.5 -18l43 -43q0 -7 10 -16.5t23 -19.5t26.5 -19t19.5 -15h107q3 0 8 -6t9.5 -14.5t8 -17t3.5 -13.5q0 -10 -4 -10v-219l-11 -5v-192q-10 0 -10 -10q0 -13 4 -22t21 -19v-41q-10 -4 -16.5 -14.5t-12.5 -22.5 t-12.5 -22.5t-16.5 -16.5q-83 -53 -150 -95q-28 -18 -55.5 -35.5l-49.5 -31.5t-36 -23.5t-16 -11.5h-51q-2 14 -17.5 26.5t-36 22.5t-41 15.5t-32.5 5.5q-5 0 -9 -4t-7 -10t-5 -12.5t-2 -10.5q0 -10 2 -13t2 -9q0 -9 -2 -11t-2 -8t9 -6v-295q3 0 16.5 -7t28.5 -16.5 t27 -18.5t12 -13h51q0 -10 3 -14.5t7 -7.5t7 -7.5t3 -13.5q0 -12 -16.5 -36t-38 -48.5t-43.5 -44.5t-33 -25q-3 -2 -11.5 -3t-18 -2.5t-17.5 -4.5t-10 -8h-60q-4 8 -22 18.5t-43 23t-53 27t-52 31t-39.5 34.5t-15.5 38zM660 254q0 -3 9.5 -7.5t21.5 -9.5t23.5 -8.5 t15.5 -3.5q11 0 13 7.5t2.5 16t2 16t10.5 7.5v117l4 6v33l-4 4v41l9 6v70l6 4q0 17 -12.5 29t-31.5 22.5t-41.5 19.5t-42 20t-33.5 24t-17 30h-52q-2 -6 -14 -14t-25.5 -16.5t-24.5 -15t-11 -9.5v-72q-5 0 -7 -2l-2 -2l4 -10v-266l-4 -4q0 -23 9.5 -28t29.5 -5q6 0 6 4h72 l4 -4h80v0z" />
<glyph unicode="q" horiz-adv-x="1141" d="M708 -356l-10 4v14v23t1.5 28.5t6 26.5t12.5 16v197l5 8v123q0 6 -7.5 7t-11.5 1q-62 -38 -111 -68q-21 -13 -41.5 -25t-37 -21.5t-27 -15t-12.5 -5.5h-47q-15 19 -47.5 33t-67 26.5t-62.5 23.5t-34 24h-84q-6 -11 -17.5 -13t-15.5 -10h-51q0 22 -19 29v41q6 4 21 23.5 t33 43t36.5 44t30.5 26.5v78l6 6v237l-6 5q-6 14 -20 19t-28 9.5t-25 13t-11 29.5q0 9 1.5 13t3.5 7.5t3.5 8.5t1.5 16l48 47q8 0 28.5 11t41.5 24.5t37.5 26t16.5 14.5q39 19 89 52t103 65.5t103.5 56t89.5 23.5q22 0 48.5 -13.5t55.5 -33.5t58.5 -44t57.5 -44t53.5 -33.5 t44.5 -13.5q16 0 36.5 6t43.5 6q10 0 16 -11.5t6 -21.5l-4 -4v-41q-5 -2 -7 -6t-4 -8.5t-4 -7.5t-7 -3h-6l-37 -36v-379q-11 0 -11 -11q0 -10 2.5 -15t2.5 -15v-15l-5 -6v-532q0 -18 15.5 -42t37 -46t45 -37t38.5 -15v-71q0 -2 -12 -10.5t-29.5 -20.5t-38.5 -25.5t-40 -26 t-32 -23t-16 -15.5h-74q0 2 -22.5 16.5t-49.5 37.5t-49.5 53t-22.5 64v7q0 15 -16 19v51zM395 289q6 -9 32 -23.5t57 -29t61 -25t44 -10.5q9 0 32 4t46.5 11.5t41.5 18.5t18 25v262q6 5 6 17q0 6 -1 11t-1 9v21l-4 4v61q-33 4 -64 26.5t-60.5 47.5t-59 45.5t-60.5 20.5 q-5 0 -17.5 -3.5t-26 -8.5t-24 -12t-10.5 -13v-58l4 -8v-313l-4 -4l4 -21q0 -8 -4 -8v-43l-10 -4v0z" />
<glyph unicode="r" horiz-adv-x="836" d="M166 37l-4 -4h-54q-16 0 -21 15.5t-5 29.5v15q8 6 24 27t34.5 44.5t36.5 45t30 28.5v88q-4 0 -4 8q0 9 0.5 12.5t1.5 6.5t1.5 6t0.5 10q0 8 -4 8v156q-1 0 -8 8t-15.5 18.5t-17.5 20.5t-15 14q-1 1 -11 9t-24 19t-30 23.5t-29 22.5v51q5 2 8.5 8t6.5 13.5t6.5 14.5 t7.5 11q28 39 58 65.5t77 41.5l4 6h51q6 -14 23 -30.5t35.5 -32t35.5 -30t23 -24.5h51q5 7 22 14q28 13 51.5 36.5t49 46.5t54.5 40t67 17q3 0 10.5 -3.5t14.5 -8.5t12.5 -10.5t5.5 -10.5l65 -65q20 0 27 -19h61q11 0 15 -10t4 -19q0 -13 -11 -34.5t-28.5 -45.5t-40 -48 t-45 -43.5t-43.5 -31.5t-37 -12q-13 0 -36 8t-45.5 21t-40 29t-19.5 32h-51q-10 -10 -19 -10l-37 -37v-51q4 0 4 -4v-6q0 -6 -2 -8t-2 -6l4 -9v-61q-6 0 -6 -6q0 -4 1 -6t1 -6q-2 -2 -2 -7q0 -8 10 -8v-135l7 -4v-6l-7 -4v-43q2 0 9.5 -4.5t16.5 -10.5l16.5 -11t9.5 -7l6 -4 h51q2 -6 9.5 -9.5t16 -6.5t15 -6.5t6.5 -10.5v-41q-7 -4 -10.5 -12t-7 -16.5t-8 -16.5t-13.5 -12q-25 -10 -46.5 -24t-43 -28.5t-43.5 -27t-49 -19.5l-4 -4h-33q-2 8 -22.5 20.5t-45 25.5t-45 22.5t-22.5 11.5h-51z" />
<glyph unicode="s" horiz-adv-x="1028" d="M87 23q12 8 23 23t22.5 31t23 30t25.5 20t45 18t62.5 25.5t55 26t23.5 18.5h43q0 8 15 8h10q15 0 16 6h52l6 -4h59l6 -10h41q4 -7 9 -10.5t9.5 -5.5t8.5 -4.5t6 -8.5h33q0 4 3 12.5t3 12.5l4 4l-4 10l4 8v62q0 8 -7 14.5t-16.5 11t-20 7t-17.5 2.5t-9 -2q0 5 -10.5 14 t-23 17t-24 14t-13.5 6q-27 0 -51.5 -21t-47 -46.5t-44 -46.5t-44.5 -21q-14 0 -32.5 10.5t-37 23.5t-36 25t-29.5 14l-6 5h-96l-6 -5h-41q-9 11 -19 18t-10 30q0 12 6 20t12.5 15.5t12.5 15.5t6 18l39 39h6q8 0 8 7v5q0 8 8 11v69q-4 17 -11 35t-11 27v4q0 18 14 37.5 t36.5 39t50 38t55 35t52 29.5t40.5 21q6 5 22 26.5t35 46t35.5 44.5t23.5 21h70q2 -14 14 -25t30 -19.5t38 -15.5t38 -13t30 -12.5t14 -13.5h88q0 -2 6 -6.5t12.5 -11t12.5 -15t6 -18.5q0 -29 -19.5 -53t-45 -46t-50.5 -42.5t-35 -42.5h-135q-6 12 -18.5 17.5t-27 9t-28.5 9 t-24 17.5h-70v-61q4 0 4 -4v-7q0 -6 -2 -10t-2 -8q0 -6 2 -10t2 -8q0 -11 -2 -15t-2 -14q0 -12 14.5 -22.5t33.5 -21t38 -20.5t27 -20h59q10 0 20.5 13.5t21.5 29.5t22.5 29.5t21.5 13.5h2q4 0 7 3t14 19h88q6 -10 22 -16t34 -11t33 -10.5t19 -13.5h62q0 4 6 4q49 0 49 -49 q0 -6 -4 -6v-6q0 -10 -6 -23.5t-14.5 -26t-18.5 -23t-18 -15.5v-135q10 -8 21 -22.5t11 -24.5q0 -19 -24.5 -39.5t-61.5 -41t-81.5 -41t-85 -40t-71 -38t-40.5 -34.5h-99q-3 8 -10 8h-5q-7 0 -7 9v6q-18 0 -36.5 7t-29.5 21h-127l-12.5 -7.5t-28 -17t-30 -17.5t-17.5 -9 l-14 -6l-22 -23h-54q-11 11 -18 11v78z" />
<glyph unicode="t" horiz-adv-x="725" d="M359 -32q-9 18 -23 18h-6q-14 0 -26 8q-11 6 -34.5 23.5t-47.5 39t-42 44.5t-18 39q0 3 1 10.5t3.5 14.5t6 12.5t8.5 5.5v59l10 6v303q6 0 6 8q0 9 -1 13t-2 7l-2 6t-1 9v4q0 4 4 4v80l-8 15h-51l-6 4h-13q-28 0 -42.5 18.5t-14.5 46.5q0 15 7 24t11 23l66 66 q10 3 17.5 8.5t14 11t13.5 9.5t16 4v98q0 19 -20 28t-43.5 15t-43.5 13.5t-20 23.5v78l84 84h4q11 0 22.5 7.5t23.5 16t24.5 16t24.5 7.5q9 0 25 -7t31.5 -17.5t27.5 -23t14 -22.5q27 -2 41 -12t23.5 -23.5t18.5 -28t26 -24.5v-51l-7 -6v-51q9 0 9 -9q0 -4 -1 -6t-1 -4v-6 q0 -8 -7 -8v-51q-10 0 -10 -9q0 -39 41 -39q8 0 8 5h41q0 -5 6 -5q19 0 19 11h59l6 4h33q2 -7 9.5 -11.5t15.5 -9t14 -11.5t6 -19q0 -21 -12 -39t-30 -33.5t-39.5 -28.5t-40 -24t-31.5 -19.5t-15 -15.5h-51q0 -8 -7.5 -10t-16 -2.5t-16 -1.5t-7.5 -9v-313l-8 -4v-109l37 -36 q3 0 18 -9t34 -20t39.5 -20t35.5 -9q2 0 11.5 3t20 7.5t19 8.5t8.5 6h33q0 -9 10 -19v-51q-5 -2 -7 -6.5t-3.5 -10.5l-3 -12t-4.5 -10q-9 -8 -42 -26.5t-75 -42.5l-43 -41h-43l-4 -11h-60l-6 11h-51z" />
<glyph unicode="u" horiz-adv-x="1150" d="M247 54l-4 4h-88q0 -4 -6 -4h-13l-28 28v60q11 9 19.5 20.5l17 23t17 21t19.5 14.5v156l7 4v238q-3 3 -10 10.5t-14.5 16t-14 16t-8.5 8.5h-80q-7 0 -9 5.5t-2 12t-1 13t-7 8.5v41q6 4 13.5 14t15.5 20.5t16 18.5t15 8l53 51q3 0 17.5 7t30 16.5t29 19t15.5 13.5h43 q11 -16 37 -37t53.5 -43.5t48.5 -43t21 -34.5q0 -10 -6 -10v-51q-9 0 -9 -9q0 -8 2.5 -12t2.5 -12q0 -4 -2.5 -5t-2.5 -9q0 -5 2.5 -8t2.5 -11q0 -4 -2.5 -4t-2.5 -4q0 -8 3.5 -14.5t3.5 -20.5q0 -8 -7 -8v-219l-10 -6v-74q0 -1 11 -7.5t28 -15.5t37.5 -19.5t38.5 -20 t32 -16.5t17 -9h57q12 6 23.5 8t21.5 10q8 6 10.5 11t4 9.5t4.5 9.5t10 11v76l10 8v244q4 4 4 14q0 6 -16 28t-36.5 46t-39.5 43.5t-24 22.5v79q0 17 21 36.5t49 36.5t55 28.5t39 11.5q19 0 35 -9t30.5 -22.5t27 -29t23.5 -27.5q14 0 36.5 -8.5t43.5 -22t36 -30.5t15 -33 q0 -7 -6.5 -19t-14.5 -24t-16.5 -22t-13.5 -15v-80q-6 0 -8 -2l-2 -2l4 -19l-4 -10l4 -8v-43l-4 -4v-51q-10 0 -10 -15q0 -14 10 -18v-76q18 -14 27 -30t17.5 -31.5t22 -31t41.5 -28.5l9 -4h84q7 0 11 -4.5t5.5 -10.5t1.5 -12.5v-11.5v-18q-5 -3 -7.5 -9t-5 -13.5t-5.5 -14 t-9 -10.5q-10 -6 -38.5 -21.5t-58.5 -33t-54.5 -33.5t-26.5 -23h-61q0 -10 -15 -10q-4 0 -15 1.5t-23 5t-21.5 9t-9.5 13.5v4l-51 51q0 25 -29 25q-1 0 -15 -7l-35 -17.5t-46 -24t-49.5 -25.5t-45 -21.5t-32.5 -13.5q-3 -2 -10 -3t-14.5 -2.5t-14 -4.5t-8.5 -8h-47 q-5 8 -29 20t-51 24.5t-48.5 23t-21.5 16.5h-43z" />
<glyph unicode="v" horiz-adv-x="1028" d="M384 10q-8 0 -28.5 10t-45.5 23.5t-49.5 26.5t-40.5 19l-4 5h-80l-4 -5h-33q-7 9 -18 9v61q0 14 11 25.5t15 21.5l58 51v136l4 10l-4 8q0 4 2 7t2 13q0 11 -2 12t-2 15v8q0 6 4 6v43l-4 5l4 10v88q-1 0 -12 9.5t-24 21.5t-24.5 22t-13.5 12h-47q-4 -8 -17.5 -11t-19.5 -3 q-10 0 -15 3t-8.5 6t-7.5 6t-12 3v70q0 6 16.5 21.5t41 35t53 40t53.5 38.5t42.5 30t18.5 13h41q10 -14 25.5 -32t33 -34.5t36.5 -29t36 -16.5l37 -37q0 -9 10 -19v-51l-4 -4l4 -10v-193l-4 -4v-153l-10 -7v-41q0 -1 12 -8t30.5 -17t41 -21.5t44 -22.5t39.5 -18.5t26 -10.5 l4 -4h32q4 10 18 10q15 0 28 15t23.5 36t18 44t11.5 38l4 7v135l-4 4v51q-6 0 -11 12.5t-10 27.5t-10 28.5t-12 15.5q-16 10 -27 21l-21.5 21.5t-24 20.5t-34.5 17l-4 6h-10q-7 0 -17.5 1.5t-20.5 5.5t-17 10t-7 16v51q19 0 19 18l76 74l11 5.5t24.5 13t25 15.5t12.5 13h72 q3 -7 12 -11t19.5 -7t20.5 -5t14 -5q21 -14 42 -42t39.5 -55.5t32.5 -49t21 -21.5v-41l8 -6v-52l10 -4v-51l4 -4v-117q-8 -3 -8 -12q0 -3 1 -6.5t1 -6.5q0 -8 -8 -8v-43q-6 -1 -15.5 -16.5t-22 -39t-27 -50.5t-30.5 -50t-33 -38.5t-34 -15.5h-6l-80 -80q-1 0 -36 -21 q-19 -11 -50 -29.5t-61 -37.5t-52.5 -33.5t-23.5 -18.5h-14q-7 0 -20 5t-26.5 12.5t-23.5 16t-10 16.5v2v0z" />
<glyph unicode="w" horiz-adv-x="1444" d="M148 106q0 8 -10 18v43q6 0 6 6t-1 10t-2 7t-2 7t-1 11q0 11 10 11v51l4 4l-4 10l4 8v324l-37 37q-12 0 -18 10h-43q0 -6 -8 -6h-11q-1 0 -8.5 5.5t-16 12t-15.5 13t-7 8.5v41q4 2 8.5 9t8.5 15t7.5 14.5t4.5 8.5q6 12 33 35.5t60.5 47t66 41t49.5 17.5q9 0 15.5 -4.5 t12.5 -10t12.5 -10t16.5 -4.5l70 -69q4 2 6.5 2t4.5 1t3 1q8 0 10 -6t2.5 -12.5t2 -12.5t8.5 -6h6v-10q0 -10 -3 -13.5t-3 -9.5q0 -14 6 -14v-285l-6 -6v-80q-3 0 -7 -2l-2 -2q0 -6 2.5 -8t2.5 -6q0 -10 -2.5 -13.5t-2.5 -9.5q0 -17 13 -39.5t32.5 -43t41.5 -34.5t40 -14h9 l4 -4l10 4q2 0 5 -1t7 -1q8 0 18.5 2.5t20 7t16.5 11t7 14.5v192l6 5v41l-6 6v32l6 5v106q-2 0 -8 8.5t-14.5 21t-18.5 27.5l-19 28.5t-17 23t-13 10.5v78q0 10 20.5 26.5t46 33.5t48 31.5t26.5 20.5h70q0 -1 9 -10t22.5 -21.5t29.5 -26.5t30.5 -26t24.5 -20t11 -8v-78 q4 0 4 -10q0 -9 -2 -10t-2 -5q0 -6 2 -8t2 -6q0 -6 -2 -8t-2 -6q0 -7 3 -10t3 -19q0 -8 -6 -8v-277l-11 -4v-41q2 0 10.5 -13t19 -29.5t20.5 -31.5t16 -20q10 -8 24.5 -13t22.5 -16h61q0 6 11 23.5t26 37t30 35.5t22 17v43q8 0 8 14v10q0 16 6 17v117q-8 3 -8 12q0 2 1 6 t1 6q0 8 -8 8v70q-11 10 -30.5 35.5t-39.5 54.5h-80l-18 19v79q12 9 22 21.5t20 26t20 25.5t22 20q5 3 21 9t33 14t31.5 17.5t16.5 20.5h43q0 6 6 6q7 0 19 -2t24 -6.5t20.5 -13t8.5 -21.5l47 -47h4q12 -1 19.5 -15t13.5 -31t12.5 -32.5t15.5 -19.5v-62l11 -4v-51l4 -4v-145 q-8 -3 -8 -13q0 -2 1 -5t1 -6q0 -9 -9 -9v-43q-2 0 -8.5 -10.5t-15 -26t-18.5 -34.5t-18 -35.5t-13.5 -28.5t-5.5 -15l-70 -69q0 -5 -5.5 -11.5t-13 -12t-15.5 -9.5t-13 -4l-70 -70q-10 0 -28.5 -11t-41.5 -27t-48 -35t-47 -35t-39.5 -27t-25.5 -11h-1q-2 0 -13 -14h-51 q-8 11 -31.5 29.5t-49 38.5t-45 38.5t-19.5 29.5h-60q-8 -19 -38.5 -38.5t-64.5 -37t-62.5 -33t-34.5 -27.5h-43q-9 18 -29 30t-42.5 21.5t-43 20.5t-31.5 27q-6 14 -22 14z" />
<glyph unicode="x" horiz-adv-x="1110" d="M213 38q-4 0 -14 2.5t-20.5 7t-19.5 9.5t-11 10h-51q-7 -10 -22 -21.5t-25 -11.5q-17 0 -28 5t-28 22v61q17 11 29 40q11 27 31.5 49.5t46 40t55 30.5t57.5 22l6 4h70q21 -8 41 -14t36.5 -11.5t28 -10.5t15.5 -11l4 -4h10q9 0 20 9.5t20.5 22.5t15.5 26.5t6 21.5v8 q-5 0 -15.5 14.5t-25 37.5t-31.5 52.5t-34.5 60.5t-35 61t-32.5 53q-21 33 -37.5 47t-31.5 20t-28.5 10.5t-27.5 18.5h-33l-6 -4h-41q0 10 -6 17.5t-13 11.5v51q5 3 13 12t15 19t12 20t5 14l66 66q16 3 26 9t19 13t18.5 12t24.5 5q6 0 6 -6h51q6 -12 26.5 -23.5t44.5 -22 t46.5 -19.5t32.5 -15q6 -6 17 -28t23 -45.5t23 -42.5t17 -19h33q2 15 12.5 31t24 32t27 31.5t20.5 30.5l65 65q8 8 24.5 13.5t26.5 5.5q27 0 48 -12.5t41 -27.5t42 -27.5t52 -12.5q17 0 18 6h66q8 0 12.5 -7.5t6 -16.5t1.5 -17v-10v-29q-15 -8 -29 -24.5t-25.5 -35.5 t-21.5 -38t-18 -33q-5 -5 -23 -14t-38 -18t-36 -16l-16 -7h-55q-2 7 -15 9.5t-27.5 5.5t-26 8t-11.5 16v2h-57q0 -11 -8.5 -20t-18.5 -9v-12q0 -10 16.5 -40.5t42 -70t56.5 -83t59.5 -82t50.5 -65.5t31 -34h25q14 0 22 2t25 2q20 0 35.5 -12.5t15.5 -34.5q0 -10 -11 -26 t-28 -34.5t-38 -38t-40.5 -36t-36 -29.5t-24.5 -18q-3 -2 -11 -3.5t-17 -3t-17 -4.5t-11 -8h-39q-2 7 -14 13.5t-27.5 12.5t-30 11t-20.5 10q-8 6 -22.5 29.5t-30.5 49.5t-32 46.5t-27 20.5h-4l-123 -121q0 -21 -14.5 -35t-33 -25.5t-36 -22.5t-23.5 -26h-43q-3 5 -10 9 t-13.5 7.5t-12 9t-5.5 13.5v4z" />
<glyph unicode="y" horiz-adv-x="1022" d="M246 -552q0 1 -15 8.5l-34 17t-35.5 18t-19.5 11.5q-7 8 -15 18.5t-22 10.5l-37 37l-3.5 14t-6.5 20.5t-8.5 19.5t-10.5 11v117q8 10 10 25.5t9 29.5q10 14 28.5 32.5t40 34.5t43 27t37.5 11q47 0 47 -48v-24q-4 0 -4 -8q0 -35 17 -57.5t41 -39t50.5 -31t45.5 -32.5h174 q2 4 12 9t22.5 9.5t24 7.5t15.5 3l38 37q0 4 3.5 11t9.5 7v43l6 4v135l-6 6v52q-11 6 -16.5 20l-11 28t-12.5 25t-20 11h-24q0 -6 -14.5 -18t-37 -26t-49 -29t-51 -27t-43 -19.5t-24.5 -7.5q-7 0 -24.5 8t-40 20.5t-48 27.5t-49 29.5t-41.5 27t-27 18.5q-11 8 -15 20t-13 16 v164q6 6 6 19q0 14 -6 14v19q0 4 1 12t5 12v103l-6 4v127q-2 0 -12.5 8t-22.5 18.5t-22.5 20.5t-12.5 14h-51q0 4 -7.5 6t-11.5 2v109q6 6 12.5 17t13.5 23t14.5 21.5t15.5 11.5q18 11 43.5 21t40.5 27h24q32 0 56.5 -13t46.5 -30.5t43.5 -34.5t46.5 -25q0 -5 1 -16 t3.5 -23.5t6.5 -24.5t11 -20v-76q4 -4 4 -14l-4 -14l4 -19l-4 -8l4 -10v-80l-4 -4l4 -8v-25l-4 -4l4 -10v-33l-4 -4l4 -10l-4 -8q0 -3 2 -5l6 -6v-73q0 -10 16 -21.5t36 -23.5t40 -23.5t27 -22.5h88q5 0 7.5 4t4 9t3 9.5t4.5 6.5v397q-15 12 -24.5 27t-18 30t-17 29 t-20.5 23v70q1 8 22.5 26.5t48 39t48 36.5t22.5 18h51q2 -4 12.5 -16t25.5 -27.5t32 -32t32 -31t25.5 -23.5t12.5 -9v-80l-5 -4v-221q-10 0 -10 -6q0 -11 1.5 -15.5t3 -7t2.5 -7t1 -15.5q0 -8 -6 -8v-43l4 -4q0 -9 -2 -10t-2 -5q1 -3 4 -13.5t10 -28.5q8 -21 21 -51t25 -58 t21.5 -48t10.5 -20v-90l5 -4v-146q-15 -37 -26.5 -60t-20 -38t-13 -23.5t-4.5 -17.5l-39 -37q-3 0 -20 -19.5t-38.5 -43t-42 -44t-30.5 -24.5q-55 -43 -116.5 -76.5t-121.5 -68.5l-4 -4h-86l-4 -10h-47q0 4 -8 4q-4 0 -7 -2t-7 -2q-11 0 -11 10h-59z" />
<glyph unicode="z" horiz-adv-x="926" d="M459 -33q0 2 -18.5 7t-41.5 12t-43 16t-22 20h-61l-4 4h-62q-2 -2 -15 -7t-28.5 -11t-29 -12.5t-15.5 -10.5h-51q-2 3 -6.5 4t-9.5 2.5t-9 4t-4 8.5v69q15 8 25.5 27t21.5 39t25.5 35.5t36.5 15.5l63 66q-1 1 18 26t48 62.5t63.5 81.5t66 83.5t55.5 68t30 34.5v27h-59 l-7 6q-6 0 -8 -3t-10 -3t-8 10h-99l-4 4h-108q-5 -8 -14 -12.5t-18 -8t-17 -8t-13 -12.5h-32q-2 8 -9 13.5t-15 11.5t-14.5 14t-6.5 20q0 20 9.5 36t21 31t22 30.5t12.5 33.5l84 84q10 4 24.5 11.5t20.5 17.5h98q5 -6 17 -6h12q14 0 14 -8h52l4 -9h286l5 5q4 0 17 2t19 2v14 h70l21 -18v-52q-6 -1 -13 -13.5t-12.5 -28t-9.5 -30.5t-4 -22q-7 0 -19.5 -10t-24.5 -22.5t-21 -24.5t-9 -17l-80 -79q0 -19 -39 -64q-16 -18 -38 -42t-45.5 -49.5t-47 -51.5t-41.5 -48.5t-29.5 -40.5t-11.5 -28q0 -12 7 -15t15.5 -3t15.5 -0.5t7 -8.5h72q2 -9 8 -12 t12.5 -5t12.5 -3.5t8 -7.5h61l4 -11h52q0 -8 10 -8t14 2t14 2q7 0 9 -2t10 -2q29 0 49.5 14t39.5 30.5t39.5 30t49.5 13.5q2 0 9.5 -2.5t15.5 -6.5t14 -9t6 -10v-41l-4 -4v-43q-10 -2 -24.5 -17t-30 -32.5t-30.5 -32.5t-28 -17l-59 -61q-19 0 -29 -19h-43q-2 -7 -8 -10 t-12.5 -5t-12.5 -4t-8 -7h-80q0 -10 -6 -10h-16q-10 0 -10 10h-109z" />
<glyph unicode="&#xa0;" />
<glyph unicode="&#x2000;" horiz-adv-x="891" />
<glyph unicode="&#x2001;" horiz-adv-x="1782" />
<glyph unicode="&#x2002;" horiz-adv-x="891" />
<glyph unicode="&#x2003;" horiz-adv-x="1782" />
<glyph unicode="&#x2004;" horiz-adv-x="594" />
<glyph unicode="&#x2005;" horiz-adv-x="445" />
<glyph unicode="&#x2006;" horiz-adv-x="297" />
<glyph unicode="&#x2007;" horiz-adv-x="297" />
<glyph unicode="&#x2008;" horiz-adv-x="222" />
<glyph unicode="&#x2009;" horiz-adv-x="356" />
<glyph unicode="&#x200a;" horiz-adv-x="99" />
<glyph unicode="&#x202f;" horiz-adv-x="356" />
<glyph unicode="&#x205f;" horiz-adv-x="445" />
<glyph unicode="&#x25fc;" horiz-adv-x="965" d="M0 965h965v-965h-965v965z" />
</font>
</defs>
</svg>
